<?xml version="1.0" encoding="UTF-8" standalone="no"?>
<svg
	xmlns="http://www.w3.org/2000/svg"
	viewBox="0 0 128 128"
>
	<path
		class="black"
		style="fill:#598b0e"
		d="M45.04341 27.7554C45.04341 27.7554 109.98671 27.7554 109.98671 27.7554C109.98671 27.7554 109.9868 27.75542 109.9868 27.75545C109.9868 27.75545 109.9868 45.12046 109.9868 45.12046C109.9868 45.12047 109.98671 45.12049 109.98671 45.12049C109.98671 45.12049 45.04341 45.12049 45.04341 45.12049C45.04341 45.12049 45.043319 45.12047 45.043319 45.12046C45.043319 45.12046 45.043319 27.75545 45.043319 27.75545C45.043319 27.75542 45.04341 27.7554 45.04341 27.7554C45.04341 27.7554 45.04341 27.7554 45.04341 27.7554"
	/>
	<path
		class="black"
		style="fill:#598b0e"
		d="M45.04341 55.35186C45.04341 55.35186 109.98671 55.35186 109.98671 55.35186C109.98671 55.35186 109.9868 55.35187 109.9868 55.3519C109.9868 55.3519 109.9868 72.71692 109.9868 72.71692C109.9868 72.71692 109.98671 72.71692 109.98671 72.71692C109.98671 72.71692 45.04341 72.71692 45.04341 72.71692C45.04341 72.71692 45.043319 72.71692 45.043319 72.71692C45.043319 72.71692 45.043319 55.3519 45.043319 55.3519C45.043319 55.35187 45.04341 55.35186 45.04341 55.35186C45.04341 55.35186 45.04341 55.35186 45.04341 55.35186"
	/>
	<path
		class="black"
		style="fill:#598b0e"
		d="M45.04341 82.94829C45.04341 82.94829 109.98671 82.94829 109.98671 82.94829C109.98671 82.94829 109.9868 82.94829 109.9868 82.9484C109.9868 82.9484 109.9868 100.3134 109.9868 100.3134C109.9868 100.3134 109.98671 100.3134 109.98671 100.3134C109.98671 100.3134 45.04341 100.3134 45.04341 100.3134C45.04341 100.3134 45.043319 100.3134 45.043319 100.3134C45.043319 100.3134 45.043319 82.9484 45.043319 82.9484C45.043319 82.94829 45.04341 82.94829 45.04341 82.94829C45.04341 82.94829 45.04341 82.94829 45.04341 82.94829"
	/>
	<path
		class="black"
		style="fill:#598b0e"
		d="M17.944469 27.75538C17.944469 27.75538 35.309671 27.75538 35.309671 27.75538C35.309671 27.75538 35.309763 27.75538 35.309763 27.75545C35.309763 27.75545 35.309763 45.12044 35.309763 45.12044C35.309763 45.12044 35.309671 45.12044 35.309671 45.12044C35.309671 45.12044 17.944469 45.12044 17.944469 45.12044C17.944469 45.12044 17.944469 45.12044 17.944469 45.12044C17.944469 45.12044 17.944469 27.75545 17.944469 27.75545C17.944469 27.75538 17.944469 27.75538 17.944469 27.75538C17.944469 27.75538 17.944469 27.75538 17.944469 27.75538"
	/>
	<path
		class="black"
		style="fill:#598b0e"
		d="M17.944469 55.35162C17.944469 55.35162 35.309671 55.35162 35.309671 55.35162C35.309671 55.35162 35.309763 55.35162 35.309763 55.35162C35.309763 55.35162 35.309763 72.71674 35.309763 72.71674C35.309763 72.71674 35.309671 72.71674 35.309671 72.71674C35.309671 72.71674 17.944469 72.71674 17.944469 72.71674C17.944469 72.71674 17.944469 72.71674 17.944469 72.71674C17.944469 72.71674 17.944469 55.35162 17.944469 55.35162C17.944469 55.35162 17.944469 55.35162 17.944469 55.35162C17.944469 55.35162 17.944469 55.35162 17.944469 55.35162"
	/>
	<path
		class="black"
		style="fill:#598b0e"
		d="M17.944469 82.94817C17.944469 82.94817 35.309671 82.94817 35.309671 82.94817C35.309671 82.94817 35.309763 82.94817 35.309763 82.94828C35.309763 82.94828 35.309763 100.3134 35.309763 100.3134C35.309763 100.3134 35.309671 100.3134 35.309671 100.3134C35.309671 100.3134 17.944469 100.3134 17.944469 100.3134C17.944469 100.3134 17.944469 100.3134 17.944469 100.3134C17.944469 100.3134 17.944469 82.94828 17.944469 82.94828C17.944469 82.94817 17.944469 82.94817 17.944469 82.94817C17.944469 82.94817 17.944469 82.94817 17.944469 82.94817"
	/>
</svg>
