<?xml version="1.0" encoding="UTF-8" standalone="no"?>
<svg
	xmlns="http://www.w3.org/2000/svg"
	viewBox="0 0 128 128"
>
	<path
		class="black"
		d="m 51.034777,98.770398 c -12.90535,-0.38706 -20.99277,-0.95153 -25.04661,-1.74814 -2.336807,-0.4592 -4.857707,-1.80161 -6.537257,-3.48115 -2.86011,-2.86011 -3.87123,-6.15731 -4.66821,-15.22277 -1.26283,-14.36424 -0.34905,-33.63668 1.87702,-39.58811 1.1779,-3.14912 4.37799,-6.19188 7.643067,-7.2673 8.82628,-2.90712 67.2671,-3.05188 78.440113,-0.1943 2.41674,0.61809 3.8418,1.44166 5.70397,3.29643 1.94767,1.93993 2.69675,3.23702 3.39205,5.87359 2.60057,9.86145 2.60157,37.04358 0.002,47.29319 -0.63466,2.50208 -1.45328,3.94336 -3.30502,5.81888 -3.06057,3.09986 -5.70726,3.86756 -15.691543,4.5515 -6.6976,0.45879 -12.62052,0.61272 -25.82628,0.6712 -7.61144,0.0337 -14.80381,0.0324 -15.98305,-0.003 z"
		style="fill:#ff0000"
	/>
  <path
		class="white"
		d="m 53.691558,78.915438 v -30.1017 l 26.305085,15.18644 z"
		style="fill:#ffffff"
	/>
</svg>
