<?xml version="1.0" encoding="UTF-8" standalone="no"?>
<svg
	viewBox="0 0 128 128"
	xmlns="http://www.w3.org/2000/svg"
>
	<path
		d="M111.07 19.97c10.216 10.278 10.216 26.82 0 37.097l-9.305 9.243c-6.811 6.812-16.42 8.94-25.177 6.63l15.933-15.873 4.622-4.683 4.622-4.622c5.108-5.108 5.108-13.379 0-18.487a12.958 12.958 0 0 0-18.487 0l-4.683 4.622L58.04 54.452c-2.25-8.758-.122-18.366 6.69-25.177l9.243-9.305c10.278-10.217 26.88-10.217 37.097 0zM55.425 84.86l32.474-32.475a6.533 6.533 0 0 0 0-9.244c-2.675-2.615-6.872-2.371-9.304 0L46.18 75.615a6.533 6.533 0 0 0 0 9.244c2.676 2.615 6.872 2.371 9.244 0zm-4.622 13.926L75.98 73.547c2.31 8.758.182 18.366-6.629 25.177l-9.244 9.305c-10.277 10.217-26.819 10.217-37.096 0-10.217-10.217-10.217-26.88 0-37.097l9.304-9.243c6.812-6.812 16.42-8.94 25.177-6.69L32.315 80.237c-5.169 5.108-5.169 13.379 0 18.548 5.109 5.108 13.38 5.108 18.488 0z"
		style="fill:#ff00a9"
	/>
</svg>
