<?xml version="1.0" encoding="UTF-8" standalone="no"?>
<svg
	xmlns="http://www.w3.org/2000/svg"
	viewBox="0 0 128 128"
>
	<path
		d=" M 3.328 18.108 C 3.328 18.108 124.92 18.108 124.92 18.108 C 124.92 18.108 124.92 18.108 124.92 18.108 C 124.92 18.108 124.92 38.756 124.92 38.756 C 124.92 38.756 124.92 38.756 124.92 38.756 C 124.92 38.756 3.328 38.756 3.328 38.756 C 3.328 38.756 3.328 38.756 3.328 38.756 C 3.328 38.756 3.328 18.108 3.328 18.108 C 3.328 18.108 3.328 18.108 3.328 18.108 C 3.328 18.108 3.328 18.108 3.328 18.108 Z "
		style="fill:#6daa11"
	/>
	<path
		d=" M 3.328 54.624 C 3.328 54.624 124.92 54.624 124.92 54.624 C 124.92 54.624 124.92 54.624 124.92 54.624 C 124.92 54.624 124.92 75.272 124.92 75.272 C 124.92 75.272 124.92 75.272 124.92 75.272 C 124.92 75.272 3.328 75.272 3.328 75.272 C 3.328 75.272 3.328 75.272 3.328 75.272 C 3.328 75.272 3.328 54.624 3.328 54.624 C 3.328 54.624 3.328 54.624 3.328 54.624 C 3.328 54.624 3.328 54.624 3.328 54.624 Z "
		style="fill:#6daa11"
	/>
	<path
		d=" M 3.328 91.14 C 3.328 91.14 124.92 91.14 124.92 91.14 C 124.92 91.14 124.92 91.14 124.92 91.14 C 124.92 91.14 124.92 111.788 124.92 111.788 C 124.92 111.788 124.92 111.788 124.92 111.788 C 124.92 111.788 3.328 111.788 3.328 111.788 C 3.328 111.788 3.328 111.788 3.328 111.788 C 3.328 111.788 3.328 91.14 3.328 91.14 C 3.328 91.14 3.328 91.14 3.328 91.14 C 3.328 91.14 3.328 91.14 3.328 91.14 Z "
		style="fill:#6daa11"
	/>
</svg>
