<?xml version="1.0" encoding="UTF-8" standalone="no"?>
<svg
	xmlns="http://www.w3.org/2000/svg"
	viewBox="0 0 128 128"
>
	<path
		d="M63.500736 102.27587C42.511109 102.27587 25.435104 85.155227 25.435104 64.115382C25.435104 43.07568 42.511109 25.949427 63.500736 25.949427C84.48478 25.949427 101.56081 43.07568 101.56081 64.115382C101.56081 85.155227 84.48478 102.27587 63.500736 102.27587M119.77967 44.703537C119.77967 44.703537 120.76151 44.271869 115.04663 34.166276C109.34346 24.059253 108.48493 24.699574 108.48493 24.699574C97.429799 28.345817 91.609597 28.708426 91.609597 28.708426C91.609597 28.708426 91.631897 28.741806 91.631897 28.741806C88.08627 25.84237 84.105762 23.483967 79.801932 21.773086C79.801932 21.773086 80.108394 21.773086 80.108394 21.773086C80.108394 21.773086 77.53833 16.476394 75.152303 4.9200867C75.152303 4.9200867 75.263798 3.8552806 63.796148 3.8552806C52.311784 3.8552806 52.43438 4.9200867 52.43438 4.9200867C50.254549 15.501955 47.91313 20.819797 47.533967 21.644878C47.254828 21.750768 46.971386 21.84635 46.697953 21.961448C42.867963 23.539946 39.316691 25.652299 36.0945 28.18337C36.0945 28.18337 36.13909 28.11099 36.13909 28.11099C36.13909 28.11099 30.335605 27.621772 19.347402 23.740969C19.347402 23.740969 18.505584 23.079104 12.590634 33.068092C6.6700317 43.052812 7.6345502 43.493124 7.6345502 43.493124C16.175302 51.515143 19.319644 56.488073 19.319644 56.488073C19.319644 56.488073 19.358664 56.432243 19.358664 56.432243C18.939906 58.924461 18.695298 61.494385 18.695298 64.108917C18.695298 66.389614 18.867945 68.630027 19.191721 70.827263C19.191721 70.827263 19.169431 70.788273 19.169431 70.788273C19.169431 70.788273 15.924792 75.693571 7.2166975 83.532849C7.2166975 83.532849 6.2468595 83.950105 11.955373 94.064356C17.658561 104.16563 18.505945 103.54113 18.505945 103.54113C29.58338 99.883404 35.392414 99.528 35.392414 99.528C35.392414 99.528 35.370164 99.47779 35.370164 99.47779C38.910206 102.38297 42.901934 104.75149 47.211381 106.46376C47.211381 106.46376 46.89341 106.46376 46.89341 106.46376C46.89341 106.46376 49.469089 111.76048 51.849501 123.31675C51.849501 123.31675 51.721291 124.38156 63.205656 124.38156C74.67894 124.38156 74.561811 123.31675 74.561811 123.31675C76.741642 112.7464 79.077456 107.42265 79.467689 106.59757C83.609925 104.9917 87.439775 102.78441 90.896366 100.08071C90.896366 100.08071 90.857346 100.12531 90.857346 100.12531C90.857346 100.12531 96.66083 100.59971 107.64905 104.50114C107.64905 104.50114 108.48477 105.14869 114.41703 95.168253C120.32637 85.177691 119.36755 84.743134 119.36755 84.743134C110.82115 76.715351 107.6824 71.74818 107.6824 71.74818C107.6824 71.74818 107.6489 71.78717 107.6489 71.78717C108.07226 69.294953 108.29044 66.730783 108.29044 64.110497C108.29044 61.835554 108.13531 59.60522 107.82304 57.420925C107.82304 57.420925 107.83414 57.443225 107.83414 57.443225C107.83414 57.443225 111.07881 52.537927 119.78126 44.704405"
		style="fill:#2a508d"
	/>
	<path
		d="M63.501873 84.017899C52.050893 84.017899 42.768705 74.719551 42.768705 63.234614C42.768705 51.756293 52.05094 42.445717 63.501873 42.445717C74.958321 42.445717 84.23504 51.755575 84.23504 63.234614C84.23504 74.71869 74.95842 84.017899 63.501873 84.017899M63.501873 29.589913C44.998668 29.589913 29.946356 44.686702 29.946356 63.234614C29.946356 81.787994 44.998668 96.884928 63.501873 96.884928C81.999495 96.884928 97.051826 81.787994 97.051826 63.234614C97.051826 44.686702 81.999495 29.589913 63.501873 29.589913M35.393601 98.646604C35.393601 98.646604 35.371301 98.596534 35.371301 98.596534"
		style="fill:#1e3863"
	/>
</svg>
