<?xml version="1.0" encoding="UTF-8" standalone="no"?>
<svg
	xmlns="http://www.w3.org/2000/svg"
	viewBox="0 0 128 128"
>
	<path
		class="black"
		d="m 11.796875,19.171875 c -1.734587,-5e-6 -3.1542969,1.419708 -3.1542969,3.154297 0,1.734599 1.4197099,3.152344 3.1542969,3.152344 h 0.01172 1.039062 4.625 c 2.583598,0 2.912868,2.244066 2.947266,2.414062 l 3.132812,15.955078 c 0.03427,0.170316 0.09123,0.446883 0.125,0.617188 0,0 5.727539,29.590487 7.650391,39.451172 0.03315,0.170315 0.58192,7.49414 9.115234,7.49414 h 58.353516 c 8.619975,0 8.892265,-6.301362 9.117185,-7.49414 1.797,-9.537113 7.51172,-38.089844 7.51172,-38.089844 0.0331,-0.170303 0.056,-0.449896 0.0527,-0.623047 -6.9e-4,-3.07e-4 -0.0807,-3.978133 -1.39454,-5.576172 h -0.002 c -1.31355,-1.598028 -5.19922,-2.447266 -5.19922,-2.447265 -0.16935,-0.03724 -0.44926,-0.06869 -0.62304,-0.06836 l -78.214848,0.02539 c -0.173447,0 -0.455327,0.02368 -0.626953,0.05078 l -0.609375,-0.345703 c -0.145318,-0.09431 -0.294077,-0.312437 -0.328125,-0.482422 l -1.876953,-9.707031 c -0.03415,-0.170316 -0.949235,-7.480469 -9.13086,-7.480469 h -4.625 z m 40.333984,75.988281 c -4.101848,0 -7.439453,3.335873 -7.439453,7.437504 0,4.10163 3.337809,7.43945 7.439453,7.43945 4.101643,0 7.4375,-3.33782 7.4375,-7.43945 0,-4.101631 -3.335857,-7.437504 -7.4375,-7.437504 z m 35.074219,0 c -4.101644,0 -7.439453,3.335873 -7.439453,7.437504 0,4.10163 3.338116,7.43945 7.439453,7.43945 4.102268,0 7.439453,-3.33782 7.439453,-7.43945 0,-4.101631 -3.337185,-7.437504 -7.439453,-7.437504 z"
		style="fill:#2a508d"
	/>
	<path
		class="white"
		d="m 83.540413,47.786888 -17.551992,17.551993 -9.882922,-9.882923 -7.376283,7.376284 9.882922,9.882922 7.374902,7.374902 7.376284,-7.376283 17.551992,-17.551993 z"
		style="fill:#ffffff"
	/>
</svg>
