<?xml version="1.0" encoding="UTF-8" standalone="no"?>
<svg
	xmlns="http://www.w3.org/2000/svg"
	viewBox="0 0 128 128"
>
	<path
		class="black"
		d="M102.57684 53.7927C102.57684 53.7927 26.483878 24.5393 26.483878 24.5393C25.921804 24.3264 25.283153 24.4542 24.848826 24.88848C24.848826 24.88848 24.815016 24.92258 24.815016 24.92258C24.389188 25.34839 24.252942 25.98711 24.465856 26.5577C24.465856 26.5577 53.71925 102.65069 53.71925 102.65069C53.940662 103.23823 54.502738 103.62146 55.124392 103.63005C55.746138 103.63805 56.31671 103.26377 56.55512 102.68467C56.55512 102.68467 65.846399 80.355 65.846399 80.355C65.846399 80.355 79.361691 93.87033 79.361691 93.87033C80.230435 94.73898 81.644075 94.73898 82.512734 93.87033C85.621188 90.76188 90.679865 85.70331 93.788328 82.59486C94.65698 81.7262 94.65698 80.31241 93.788328 79.44384C93.788328 79.44384 80.290015 65.92852 80.290015 65.92852C80.290015 65.92852 102.6197 56.63717 102.6197 56.63717C103.19876 56.39872 103.57342 55.82813 103.56502 55.20644C103.56502 55.20644 103.56502 55.20644 103.56502 55.20644C103.54772 54.57615 103.15619 54.01409 102.57711 53.79274C102.57711 53.79274 102.57684 53.7927 102.57684 53.7927"
		style="fill:#34a3d3"
	/>
</svg>
