<?xml version="1.0" encoding="UTF-8" standalone="no"?>
<svg
	xmlns="http://www.w3.org/2000/svg"
	viewBox="0 0 128 128"
>
	<path
		d="M60.512218 0.0C60.512218 0.0 67.757626 0.01651 67.757626 0.01651C67.757626 0.01651 67.708086 15.177276 67.708086 15.177276C91.841334 17.001442 111.10374 36.33225 112.83525 60.471859C112.83525 60.471859 128.0 60.50488 128.0 60.50488C128.0 60.50488 128.0 67.748381 128.0 67.748381C128.0 67.748381 112.83524 67.715361 112.83524 67.715361C110.98715 91.844237 91.674538 111.09134 67.528573 112.82222C67.528573 112.82222 67.47903 128.0 67.47903 128.0C67.47903 128.0 60.250797 127.991 60.250797 127.991C60.250797 127.991 60.300337 112.81323 60.300337 112.81323C36.166928 110.98931 16.907327 91.658506 15.164757 67.518896C15.164757 67.518896 0.0 67.502384 0.0 67.502384C0.0 67.502384 0.0 60.267469 0.0 60.267469C0.0 60.267469 15.156004 60.300489 15.156004 60.300489C16.964962 36.166156 36.310269 16.915917 60.462838 15.185032C60.462838 15.185032 60.512218 0.0 60.512218 0.0M64.096442 22.216387C41.060394 22.166857 22.272932 40.882346 22.22917 63.919267C22.17963 86.950576 40.907472 105.71477 63.94319 105.75852C86.979242 105.80802 105.74606 87.112867 105.78454 64.081392C105.83404 41.044637 87.139594 22.265586 64.096442 22.216387C64.096442 22.216387 64.096442 22.216387 64.096442 22.216387M64.046902 38.605811C78.066073 38.622451 89.416399 50.020013 89.392783 64.047219C89.343243 78.063856 77.971612 89.419283 63.944681 89.386266C49.917746 89.353242 38.567423 77.969587 38.598966 63.953443C38.598966 49.926237 50.016006 38.57312 64.046902 38.605811C64.046902 38.605811 64.046902 38.605811 64.046902 38.605811"
		style="fill:#ffffff"
	/>
</svg>
