<?xml version="1.0" encoding="UTF-8" standalone="no"?>
<svg
	xmlns="http://www.w3.org/2000/svg"
	viewBox="0 0 128 128"
>
	<path
		class="black"
		d="M68.338985406 14.8827550237C68.338985406 14.8827550237 113.117245695 59.6610153126 113.117245695 59.6610153126C115.521048126 62.0648177442 115.52104247 65.93518651 113.117245695 68.3389832847C113.117245695 68.3389832847 68.3389832847 113.117245695 68.3389832847 113.117245695C65.93518651 115.52104247 62.0648177442 115.521048126 59.6610153126 113.117245695C59.6610153126 113.117245695 14.8827550237 68.338985406 14.8827550237 68.338985406C12.478958249 65.9351886313 12.478958249 62.0648142086 14.8827550237 59.6610174339C14.8827550237 59.6610174339 59.6610174339 14.8827550237 59.6610174339 14.8827550237C62.0648142086 12.478958249 65.9351886313 12.478958249 68.338985406 14.8827550237C68.338985406 14.8827550237 68.338985406 14.8827550237 68.338985406 14.8827550237"
		style="opacity:1;stroke-opacity:1;fill-opacity:1;stroke:none;stroke-dasharray:none;stroke-miterlimit:4;stroke-width:32.581790506;fill:#ffc304"
	/>
	<path
		class="white"
		d="M49.17902 54.36989C49.17902 54.36989 49.17902 63.83118 49.17902 63.83118C49.17902 63.83118 49.17902 89.93014 49.17902 89.93014C49.17902 89.93014 58.63926 89.93014 58.63926 89.93014C58.63926 89.93014 58.63926 63.83118 58.63926 63.83118C58.63926 63.83118 76.90894 63.83118 76.90894 63.83118C76.90894 63.83118 76.90894 54.36989 76.90894 54.36989C76.90894 54.36989 58.63926 54.36989 58.63926 54.36989C58.63926 54.36989 49.17902 54.36989 49.17902 54.36989"
		style="fill:#ffffff"
	/>
	<path
		class="white"
		d="M73.552808 71.128935C73.552808 71.128935 73.552808 47.072458 73.552808 47.072458C73.552808 47.072458 94.386328 59.100697 94.386328 59.100697C94.386328 59.100697 73.552808 71.128935 73.552808 71.128935"
		style="fill:#ffffff"
	/>
</svg>
