<?xml version="1.0" encoding="UTF-8" standalone="no"?>
<svg
	xmlns="http://www.w3.org/2000/svg"
	viewBox="0 0 128 128"
>
	<path
		d="M 10.952831,10.952831 H 117.04717 V 117.04717 H 10.952831 Z"
		style="fill:#f0db4f"
	/>
	<path
		d="m 51.944572,108.64566 c -5.704929,-0.50482 -10.106398,-3.34726 -12.682855,-8.19049 l -0.446474,-0.839275 3.991786,-2.415594 c 2.195482,-1.328574 4.021356,-2.427067 4.057497,-2.441095 0.03614,-0.01403 0.300546,0.376255 0.587563,0.867299 1.388318,2.375196 2.577798,3.4887 4.25986,3.98777 0.648779,0.19249 2.543722,0.22079 3.355211,0.0501 1.79101,-0.37671 2.869006,-1.535494 3.370611,-3.623227 0.169546,-0.705668 0.182718,-1.851814 0.212925,-18.527038 l 0.0322,-17.774836 h 4.941317 4.941316 l -0.03315,18.430362 c -0.03667,20.385523 0.0148,18.792181 -0.684927,21.203739 -1.298485,4.475125 -4.457375,7.535865 -8.994046,8.714595 -1.984967,0.51574 -4.80777,0.74359 -6.908831,0.55767 z m 38.215346,0.002 c -4.071131,-0.31671 -7.6492,-1.53718 -10.630451,-3.62604 -1.144464,-0.80189 -3.149798,-2.78831 -3.939737,-3.9026 -1.009687,-1.424245 -1.598254,-2.481267 -1.45548,-2.613917 0.170344,-0.158264 7.833113,-4.578058 7.937157,-4.578058 0.04574,0 0.231109,0.230554 0.411932,0.512341 1.754498,2.734148 4.033999,4.482869 6.724102,5.158389 1.199176,0.30114 3.904897,0.32491 5.099104,0.0448 1.74782,-0.40995 3.342999,-1.548966 3.937455,-2.811487 0.537971,-1.14256 0.527408,-2.695698 -0.02638,-3.879119 -0.774456,-1.654974 -2.358973,-2.666233 -7.873161,-5.024748 -3.990292,-1.706719 -5.801787,-2.665406 -7.715035,-4.082985 -3.077135,-2.279934 -4.899648,-5.264174 -5.440856,-8.909024 -0.197835,-1.332347 -0.200475,-3.67437 -0.0055,-4.876535 0.650355,-4.009892 3.16425,-7.393903 6.865939,-9.242396 3.631338,-1.813363 8.920713,-2.159631 13.203684,-0.864379 2.235358,0.676016 4.221489,1.91821 5.895999,3.687559 0.86143,0.910218 2.57216,3.277976 2.50437,3.466215 -0.0305,0.08468 -7.33229,4.800155 -7.580266,4.895312 -0.08868,0.03403 -0.308915,-0.224629 -0.625435,-0.734539 -0.67023,-1.079732 -1.925866,-2.314726 -2.773632,-2.728039 -0.985221,-0.480325 -1.803542,-0.66049 -3.018219,-0.664502 -1.710193,-0.0056 -2.819106,0.423272 -3.781344,1.462603 -0.648118,0.700046 -0.963535,1.455448 -1.034933,2.478597 -0.0959,1.37429 0.291716,2.542422 1.147086,3.456882 0.924842,0.98873 2.274317,1.727247 6.44257,3.525774 8.474423,3.656564 11.783813,6.341026 13.400463,10.870006 0.5669,1.588168 0.7084,2.595327 0.71174,5.066072 0.003,2.11062 -0.0156,2.3475 -0.26403,3.391062 -0.59378,2.494186 -1.55199,4.228536 -3.30934,5.989826 -1.24221,1.24501 -2.07872,1.85584 -3.60731,2.63409 -2.885774,1.46923 -7.238075,2.20709 -11.200495,1.89884 z"
		style="fill:#323330"
	/>
</svg>
