<?xml version="1.0" encoding="UTF-8" standalone="no"?>
<svg
	xmlns="http://www.w3.org/2000/svg"
	viewBox="0 0 128 128"
>
	<path
		d="M122.22645 47.150925C122.22645 47.150925 81.116676 6.0216572 81.116676 6.0216572C78.985553 8.1157267 77.395102 10.426615 76.34807 12.957064C75.305149 15.487513 74.779574 18.075602 74.779574 20.721314C74.779574 23.328612 75.301058 25.897485 76.360421 28.426559C76.360421 28.426559 50.700376 54.067119 50.700376 54.067119C48.543178 52.955589 46.298163 52.107528 43.968059 51.544901C41.637965 50.982312 39.27081 50.694104 36.869349 50.694104C33.092889 50.694104 29.439924 51.380196 25.90773 52.747004C22.375533 54.119267 19.223442 56.179025 16.448732 58.940021C16.448732 58.940021 38.313788 80.747169 38.313788 80.747169C38.313788 80.747169 47.720637 90.063445 47.577926 90.014044C47.577926 90.014044 69.30754 111.8017 69.30754 111.8017C72.080877 109.02833 74.148875 105.87493 75.510161 102.34267C76.8687 98.810497 77.550711 95.162996 77.550711 91.400254C77.550711 88.986443 77.276236 86.616552 76.713647 84.291941C76.151059 81.96733 75.311199 79.719569 74.183199 77.550021C74.183199 77.550021 99.821145 51.909102 99.821145 51.909102C102.35155 52.952023 104.92045 53.469359 107.52643 53.469359C110.18591 53.469359 112.77537 52.947874 115.30029 51.900862C117.82253 50.857942 120.13204 49.270237 122.22614 47.152837C122.22614 47.152837 122.22645 47.150937 122.22645 47.150937"
		style="fill:#f19c00"
	/>
	<path
		d="M38.482862 80.616526C38.482862 80.616526 24.522029 96.6739 24.522029 96.6739C24.522029 96.6739 13.991298 109.44279 13.991298 109.44279C13.991298 109.44279 7.3207375 118.30484 7.3207375 118.30484C5.7728275 120.59102 4.9851498 122.11149 4.9851498 122.83196C4.9851498 122.83196 4.9373808 123.12008 4.9373808 123.12008C4.9373808 123.12008 5.074609 123.16768 5.074609 123.16768C5.074609 123.16768 5.074609 123.40106 5.074609 123.40106C5.074609 123.40106 5.169845 123.26372 5.169845 123.26372C5.169845 123.26372 5.4031302 123.31152 5.4031302 123.31152C6.1304329 123.31152 7.6440324 122.54322 9.9302183 121.024C9.9302183 121.024 18.792286 114.40144 18.792286 114.40144C18.792286 114.40144 31.562545 103.82405 31.562545 103.82405C31.562545 103.82405 47.715291 89.86308 47.715291 89.86308C47.715291 89.86308 38.471743 80.619532 38.471743 80.619532C38.471743 80.619532 38.482873 80.616532 38.482873 80.616532"
		style="fill:#f19c00"
	/>
</svg>
