<?xml version="1.0" encoding="UTF-8" standalone="no"?>
<svg
	xmlns="http://www.w3.org/2000/svg"
	viewBox="0 0 128 128"
>
	<path
		d="m 73.465825,11.329102 -31.13281,31.134766 -31.13282,31.136718 21.53125,21.535157 c 11.84224,11.844817 21.76498,21.535157 22.05078,21.535157 0.28582,0 14.35796,-13.83435 31.26953,-30.744142 L 116.79981,55.180664 V 33.254883 11.329102 H 95.131835 Z m 18.68359,12.486328 c 1.91357,0 3.82867,0.313524 5.210937,0.941406 4.115648,1.869491 7.503908,7.054247 7.503908,11.480469 0,4.426222 -3.38826,9.610976 -7.503908,11.480469 -1.287287,0.584737 -3.298517,0.951172 -5.210937,0.951172 -4.02739,0 -6.7184,-1.239773 -9.46094,-4.355469 -2.79489,-3.174701 -3.71172,-6.757047 -2.78711,-10.888672 0.75854,-3.389504 3.87781,-7.231991 7.03907,-8.667969 1.38227,-0.627882 3.29541,-0.941406 5.20898,-0.941406 z m -33.98633,29.011719 6.71094,32.207031 -2.84375,2.84375 -6.7539,-32.164062 z m 11.04102,5.953125 c 0.22629,0.0033 0.45456,0.02131 0.68359,0.05469 1.82301,0.257799 3.7568,1.409145 5.80078,3.453125 2.00715,2.007152 3.12529,3.954337 3.35547,5.841797 0.23018,1.88746 -0.4546,3.632336 -2.05664,5.234375 -1.62045,1.620453 -3.36533,2.314163 -5.23437,2.083985 -1.86905,-0.230178 -3.81623,-1.357247 -5.8418,-3.382813 -2.0624,-2.062395 -3.21374,-4.005115 -3.45313,-5.828125 -0.24859,-1.832217 0.48279,-3.603882 2.19532,-5.316406 1.45012,-1.450121 2.96672,-2.163787 4.55078,-2.140625 z m -0.70508,3.603516 c -0.63529,-0.06905 -1.20776,0.153067 -1.71875,0.664062 -0.73657,0.736569 -0.92995,1.563663 -0.58008,2.484375 0.35908,0.911505 1.26151,2.091591 2.70703,3.537109 1.47314,1.473139 2.66021,2.364693 3.5625,2.677735 0.89309,0.303834 1.68642,0.110456 2.37696,-0.580078 0.67212,-0.67212 0.84122,-1.46796 0.50976,-2.388672 -0.33145,-0.920712 -1.20961,-2.094382 -2.63672,-3.521485 -1.46393,-1.463932 -2.65295,-2.366368 -3.56445,-2.707031 -0.22557,-0.08747 -0.44449,-0.142998 -0.65625,-0.166015 z m -20.75586,2.810546 c 0.22615,0.0014 0.45457,0.01775 0.6836,0.04883 1.84142,0.239385 3.78414,1.381801 5.82812,3.425782 2.00715,2.007152 3.12529,3.963266 3.35547,5.86914 0.23018,1.88746 -0.46549,3.641266 -2.08594,5.261719 -1.60204,1.602039 -3.33798,2.286819 -5.20703,2.056641 -1.87825,-0.239386 -3.8299,-1.370918 -5.85547,-3.396485 -2.09002,-2.090015 -3.24582,-4.037201 -3.46679,-5.841797 -0.23018,-1.813802 0.50762,-3.572073 2.21093,-5.27539 1.44207,-1.442065 2.95407,-2.158508 4.53711,-2.148438 z m -0.67773,3.625 c -0.63529,-0.06905 -1.20776,0.153068 -1.71875,0.664063 -0.73658,0.736569 -0.93442,1.559198 -0.59375,2.470703 0.33145,0.902298 1.22301,2.082385 2.67773,3.537109 1.45473,1.454726 2.64374,2.346278 3.56446,2.677735 0.92071,0.313041 1.72548,0.12608 2.41601,-0.564453 0.68133,-0.681327 0.85239,-1.47912 0.51172,-2.390625 -0.33145,-0.920712 -1.2205,-2.10331 -2.66602,-3.548829 -1.44552,-1.445517 -2.62365,-2.339024 -3.53515,-2.679687 -0.22558,-0.08747 -0.44449,-0.142998 -0.65625,-0.166016 z"
		style="fill:#2a508d"
	/>
</svg>
