<?xml version="1.0" encoding="UTF-8" standalone="no"?>
<svg
	xmlns="http://www.w3.org/2000/svg"
	viewBox="0 0 128 128"
>
	<path
		d="M74.454429 38.903449C74.454429 38.903449 74.454429 3.8521662 74.454429 3.8521662C74.454429 3.8521662 109.50585 38.903449 109.50585 38.903449C109.50585 38.903449 74.454429 38.903449 74.454429 38.903449"
		style="fill:#fed0a4"
	/>
	<path
		d="M20.284028 3.8521662C20.284028 3.8521662 74.73052 3.8521662 74.73052 3.8521662C74.73052 3.8521662 74.73052 38.627438 74.73052 38.627438C74.73052 38.627438 109.50585 38.627438 109.50585 38.627438C109.50585 38.627438 109.50585 124.93879 109.50585 124.93879C109.50585 124.93879 20.284028 124.93879 20.284028 124.93879C20.284028 124.93879 20.284028 3.8521662 20.284028 3.8521662"
		style="fill:#ff9348"
	/>
	<path
		d="M91.378443 55.908077C91.378443 55.908077 62.483079 84.939515 62.483079 84.939515C62.483079 84.939515 45.889001 68.269251 45.889001 68.269251C45.889001 68.269251 38.772738 75.429105 38.772738 75.429105C38.772738 75.429105 53.811789 90.542569 53.811789 90.542569C53.811789 90.542569 61.562007 98.330532 61.562007 98.330532C61.562007 98.330532 62.481384 99.251891 62.481384 99.251891C62.481384 99.251891 98.491793 63.059311 98.491793 63.059311C98.491793 63.059311 91.37553 55.899458 91.37553 55.899458C91.37553 55.899458 91.37843 55.908058 91.37843 55.908058"
		style="fill:#ffffff"
	/>
</svg>
