<svg
	viewBox="0 0 20 20"
	xmlns="http://www.w3.org/2000/svg"
>
	<g>
		<path
			class="black"
			d="M4.32105 4.35071C5.89224 2.78356 7.78477 2 9.99871 2C12.2127 2 14.0992 2.77763 15.6585 4.3329C17.2178 5.88818 17.9974 7.76991 17.9974 9.97816C17.9974 12.1864 17.2178 14.0682 15.6585 15.6234C14.0992 17.1787 12.2127 17.9563 9.99871 17.9563C7.78477 17.9563 5.89819 17.1787 4.33891 15.6234C2.77963 14.0682 2 12.1864 2 9.97816C2 7.76991 2.77368 5.89411 4.32105 4.35071ZM10.7129 13.6467C10.7367 13.338 10.6474 13.0768 10.4451 12.8631C10.2427 12.6494 9.98681 12.5426 9.67733 12.5426C9.39167 12.5426 9.14171 12.6376 8.92746 12.8275C8.7132 13.0175 8.60608 13.2668 8.60608 13.5755C8.60608 13.8841 8.7013 14.1394 8.89175 14.3412C9.08219 14.5431 9.32025 14.644 9.60592 14.644C9.91539 14.644 10.1773 14.5549 10.3915 14.3768C10.6058 14.1988 10.7129 13.9554 10.7129 13.6467ZM12.4626 9.08774C12.7483 8.68408 12.8911 8.25669 12.8911 7.80554C12.8911 7.02197 12.5935 6.40461 11.9984 5.95346C11.4271 5.52606 10.6891 5.31236 9.78446 5.31236C9.1179 5.31236 8.55847 5.4667 8.10616 5.77538C7.4396 6.22653 7.10632 7.03384 7.10632 8.19732H8.85604C8.85604 7.69869 8.90365 7.37814 8.99887 7.23567C9.21313 6.8795 9.5226 6.70142 9.92729 6.70142C10.332 6.70142 10.6296 6.83201 10.82 7.0932C11.0105 7.35439 11.1057 7.62745 11.1057 7.91239C11.1057 8.10235 11.0105 8.33979 10.82 8.62473C10.7724 8.7197 10.6534 8.83843 10.4629 8.98089C9.84397 9.33706 9.42738 9.69323 9.21312 10.0494C9.02268 10.3581 8.90365 10.8448 8.85604 11.5097C8.85604 11.6047 8.90365 11.6522 8.99887 11.6522H10.3915C10.5105 11.6522 10.57 11.6047 10.57 11.5097C10.57 11.2485 10.5939 11.0229 10.6415 10.833C10.7129 10.6193 10.8557 10.4174 11.07 10.2275L11.5699 9.90693C12.0222 9.5745 12.3198 9.30144 12.4626 9.08774Z"
			fill="#EF5848"
		/>
	</g>
</svg>
