<?xml version="1.0" encoding="UTF-8" standalone="no"?>
<svg
	xmlns="http://www.w3.org/2000/svg"
	viewBox="0 0 128 128"
>
	<path
		class="black"
		d="M11.8 19.2a3.2 3.2 0 0 0-3.2 3.1c0 1.8 1.5 3.2 3.2 3.2h5.7c2.6 0 2.9 2.2 3 2.4l3 16 .2.6 7.6 39.4c0 .2.6 7.5 9.1 7.5h58.4c8.6 0 8.9-6.3 9.1-7.5l7.5-38v-.7s0-4-1.3-5.6c-1.3-1.6-5.2-2.4-5.2-2.4H29.4l-.6-.4a.9.9 0 0 1-.3-.4l-1.9-9.7c0-.2-1-7.5-9.1-7.5h-4.7zm40.3 76a7.4 7.4 0 1 0 0 14.9 7.4 7.4 0 0 0 0-15zm35.1 0a7.4 7.4 0 1 0 0 14.9 7.4 7.4 0 0 0 0-15z"
		fill="#2a508d"
	/>
	<path
		class="white"
		d="M60.4 59.3 53 66.6l9.9 10 7.3 7.3 7.4-7.4 9.9-9.9-7.4-7.3-9.9 9.8Z"
		fill="#fff"
	/>
	<path
		class="white"
		opacity="1"
		fill="#fff"
		stroke-width="1.1"
		stroke-linecap="round"
		d="M65.7 45.3H74.8V70.9H65.7z"
	/>
</svg>
