<?xml version="1.0" encoding="UTF-8" standalone="no"?>
<svg
	viewBox="0 0 128 128"
	xmlns="http://www.w3.org/2000/svg"
>
	<path
		d="M64 108.48c24.564 0 44.477-19.913 44.477-44.478 0-24.564-19.913-44.477-44.477-44.477-24.565 0-44.478 19.913-44.478 44.477 0 24.565 19.913 44.478 44.478 44.478zm.191-66.714c-3.571 0-8.514 2.043-11.04 4.562l-6.858 6.843H80.48l11.431-11.405zM74.79 81.682c-2.526 2.52-7.468 4.562-11.04 4.562H36.03L47.461 74.84h34.187zM85.9 58.873h-45.31l-2.14 2.139c-5.069 4.561-3.566 8.125 3.532 8.125h45.433L89.556 67c5.02-4.535 3.442-8.126-3.655-8.126z"
		class="black"
		clip-rule="evenodd"
		fill-rule="evenodd"
		fill="#01824c"
		stroke-width="1.559"
	/>
</svg>
