<?xml version="1.0" encoding="UTF-8" standalone="no"?>
<svg
	xmlns="http://www.w3.org/2000/svg"
	viewBox="0 0 128 128"
>
	<path
		d="m 64.278145,7.1081826 c -4.418483,0 -8.718625,0.4995089 -12.850225,1.4463434 0.279211,0.9371415 0.57731,2.036491 0.969089,3.426602 0.538351,1.705235 0.940815,2.919841 1.207746,3.637327 l 8.566783,28.35465 c 2.648836,-0.117468 5.34938,-0.246743 7.541598,-0.307543 1.704775,-0.09268 3.418524,-0.154068 5.168162,-0.19834 1.749696,-0.0484 3.0768,-0.08087 3.974286,-0.125733 0.941994,-0.04447 1.982272,-0.06907 3.103834,-0.06907 6.99897,0 12.680477,0.927414 17.077401,2.76654 4.441671,1.839481 7.609261,4.280473 9.493661,7.33095 1.88441,3.005966 2.83691,6.297668 2.83691,9.88688 0,2.781475 -0.61438,5.436332 -1.82579,7.948808 -1.16648,2.467614 -2.64317,4.508208 -4.43785,6.123146 -1.65991,1.570129 -3.50022,2.796055 -5.519262,3.693541 -2.019106,0.85221 -4.259457,1.641732 -6.726959,2.359236 7.133535,0.449216 13.116401,2.489927 17.962081,6.123146 1.26311,0.947248 2.36656,1.976193 3.30041,3.103481 4.72844,-8.330827 7.42926,-17.963341 7.42926,-28.227829 0,-31.631643 -25.639383,-57.2709881 -57.271023,-57.271028 z M 38.5497,13.203258 c -0.11747,0.05666 -0.234349,0.109382 -0.351817,0.170005 L 25.881404,47.921205 H 48.772982 L 38.548985,13.204588 Z m -7.499458,4.522101 C 16.491677,28.109691 6.9930834,45.135935 6.9930834,64.379213 c 0,6.055876 0.9545075,11.893214 2.6965894,17.372243 0.9811902,-5.753438 2.8195492,-11.702155 4.7609142,-17.807651 0.02091,-0.06435 0.05666,-0.161741 0.085,-0.238479 0.003,-0.03869 0.01088,-0.07261 0.01403,-0.113337 L 29.5906,22.008037 c 0.262682,-0.733308 0.787868,-2.25489 1.46051,-4.283401 z m 48.549842,30.517393 c -2.557398,0 -5.074006,0.222542 -7.541625,0.674236 v 32.708229 h 6.319752 c 6.415809,0 10.921984,-1.488018 13.524304,-4.494041 2.646828,-3.005964 3.974286,-7.038724 3.974286,-12.063743 0,-4.57627 -1.276457,-8.532775 -3.833914,-11.85302 -2.557398,-3.319824 -6.700115,-4.971532 -12.442849,-4.971532 z M 24.94114,53.43898 c -7.251315,21.80001 6.581964,28.467756 4.971543,41.008168 -0.684348,5.331776 -4.131717,7.946962 -7.990949,8.482512 8.495971,9.32824 20.035372,15.83448 33.045288,17.96216 0.367755,-0.16174 0.682324,-0.34415 0.940755,-0.56196 0.897487,-0.71751 1.448764,-1.99444 1.671247,-3.83392 0.266813,-1.83706 0.406714,-4.79031 0.407304,-8.81958 V 85.613453 C 57.868859,81.828063 57.783857,78.444303 56.231024,72.622856 55.826671,70.96253 55.189977,68.64615 54.292846,65.685173 L 50.599305,53.438885 H 24.941074 Z m 47.117319,33.157599 v 0.01403 33.845801 c 0.762837,0.0445 1.588307,0.10921 2.485852,0.19834 0.08914,0.004 0.230806,0.009 0.323482,0.014 10.262354,-1.91799 19.556408,-6.56811 27.104757,-13.17318 0.14581,-1.02934 0.23848,-2.10805 0.23848,-3.25837 0,-2.73703 -0.61437,-5.428419 -1.82578,-8.075208 -1.166233,-2.692254 -3.432419,-4.971938 -6.797007,-6.811439 -3.320244,-1.839892 -7.913744,-2.752798 -13.791137,-2.752798 h -7.738205 z"
		style="fill:#000;opacity:0.2"
	/>
</svg>
