<?xml version="1.0" encoding="UTF-8" standalone="no"?>
<svg
	xmlns="http://www.w3.org/2000/svg"
	viewBox="0 0 128 128"
>
	<path
		d="M15.35285 4.936911C15.35285 4.936911 15.35285 123.85405 15.35285 123.85405C15.35285 123.85405 112.69878 123.85405 112.69878 123.85405C112.69878 123.85405 112.69878 4.936911 112.69878 4.936911C112.69878 4.936911 15.35285 4.936911 15.35285 4.936911M26.083464 19.739569C26.083464 19.739569 101.96817 19.739569 101.96817 19.739569C101.96817 19.739569 101.96817 36.963669 101.96817 36.963669C101.96817 36.963669 26.083464 36.963669 26.083464 36.963669C26.083464 36.963669 26.083464 19.739569 26.083464 19.739569M52.057055 44.777758C52.057055 44.777758 101.96817 44.777758 101.96817 44.777758C101.96817 44.777758 101.96817 109.0514 101.96817 109.0514C101.96817 109.0514 52.057055 109.0514 52.057055 109.0514C52.057055 109.0514 52.057055 44.777758 52.057055 44.777758M26.083464 44.832348C26.083464 44.832348 45.453599 44.832348 45.453599 44.832348C45.453599 44.832348 45.453599 60.955872 45.453599 60.955872C45.453599 60.955872 26.083464 60.955872 26.083464 60.955872C26.083464 60.955872 26.083464 44.832348 26.083464 44.832348M26.083464 68.880019C26.083464 68.880019 45.453599 68.880019 45.453599 68.880019C45.453599 68.880019 45.453599 85.003542 45.453599 85.003542C45.453599 85.003542 26.083464 85.003542 26.083464 85.003542C26.083464 85.003542 26.083464 68.880019 26.083464 68.880019M26.083464 92.927689C26.083464 92.927689 45.453599 92.927689 45.453599 92.927689C45.453599 92.927689 45.453599 109.05104 45.453599 109.05104C45.453599 109.05104 26.083464 109.05104 26.083464 109.05104C26.083464 109.05104 26.083464 92.927689 26.083464 92.927689"
		style="fill:#61b8dd"
	/>
</svg>
