<?xml version="1.0" encoding="utf-8"?>
<svg version="1.1"
	xmlns="http://www.w3.org/2000/svg"
	viewBox="0 0 40 40"
>
	<path
		d="m 4.1524301,3.542785 c -0.9323413,0 -1.684739,0.74848 -1.684739,1.6808213 V 34.553726 c 0,0.932341 0.7523977,1.684739 1.684739,1.684739 H 35.766744 c 0.932341,0 1.680819,-0.752398 1.680819,-1.684739 V 5.2236063 c 0,-0.9323413 -0.748478,-1.6808213 -1.680819,-1.6808213 z m 2.4957645,3.6045568 c 0.019586,-7.098e-4 0.03919,-7.098e-4 0.058776,0 0.4478282,2.136e-4 0.8108111,0.3631973 0.8110237,0.8110255 C 7.5177817,8.4061955 7.154799,8.7691791 6.7069708,8.7693928 6.2591419,8.7691802 5.8961579,8.4061962 5.8959453,7.9583673 5.8950143,7.5325063 6.2234718,7.178388 6.6482006,7.1473418 Z m 2.7621873,0 c 0.00134,-3.3e-6 0.00267,-3.3e-6 0.00401,0 0.018276,-6.18e-4 0.036568,-6.18e-4 0.054844,0 0.4493592,-0.00196 0.8147371,0.361662 0.8149461,0.8110255 C 10.283973,8.4077298 9.9185966,8.7713494 9.4692383,8.7693928 9.0214094,8.7691802 8.6584254,8.4061962 8.6582128,7.9583673 8.6572818,7.5325063 8.9857393,7.178388 9.4104681,7.1473418 Z m 2.0138501,0 h 22.481463 v 1.622051 H 11.424232 Z M 5.8959393,11.954723 H 33.784237 V 32.751449 H 5.8959393 Z m 5.2422787,1.982507 -1.5319368,1.531935 1.7160828,1.712166 -1.7160828,1.716082 1.5319368,1.531937 1.716083,-1.716083 1.712163,1.712165 1.531937,-1.531936 -1.712165,-1.712165 1.712165,-1.712166 -1.531937,-1.531935 -1.712163,1.712164 z m 14.218408,0 -1.535853,1.531935 1.716081,1.712166 -1.716081,1.716082 1.535853,1.531937 1.712165,-1.716083 1.712165,1.712165 1.528017,-1.531936 -1.708245,-1.712165 1.708245,-1.712166 -1.528017,-1.531935 -1.712165,1.712164 z m -11.914627,9.516812 v 2.150981 h 5.841734 v 1.516264 c 0,1.350038 0.301123,2.366389 0.901139,3.052119 0.610732,0.685734 1.505223,1.030433 2.683827,1.030433 1.178603,0 2.073097,-0.344699 2.683828,-1.030433 0.610729,-0.68573 0.979378,-1.703534 0.916811,-3.052119 l -0.176309,-3.667245 z"
	/>
</svg>
