<?xml version="1.0" encoding="UTF-8" standalone="no"?>
<svg
	xmlns="http://www.w3.org/2000/svg"
	viewBox="0 0 1.3333333 1.3333332"
	height="120"
	width="120"
>
	<rect
		y="7.6904261e-10"
		x="-1.0009764e-08"
		height="1.3333333"
		width="1.3333333"
		style="fill:#25b7d3"
	/>
	<path
		d="M0.834519 0.669855C0.834519 0.669855 1.021987 0.669855 1.021987 0.669855C1.035397 0.669855 1.046197 0.680655 1.046197 0.694065C1.046197 0.694065 1.046197 1.027316 1.046197 1.027316C1.046197 1.040726 1.035397 1.051526 1.021987 1.051526C1.021987 1.051526 0.834519 1.051526 0.834519 1.051526C0.821109 1.051526 0.810309 1.040726 0.810309 1.027316C0.810309 1.027316 0.810309 0.694065 0.810309 0.694065C0.810309 0.680655 0.821109 0.669855 0.834519 0.669855C0.834519 0.669855 0.834519 0.669855 0.834519 0.669855"
		style="fill:#3e3e3f"
	/>
	<path
		d="M0.824896 0.792923C0.824896 0.792923 1.031613 0.792923 1.031613 0.792923C1.031613 0.792923 1.031613 0.817413 1.031613 0.817413C1.031613 0.817413 0.824896 0.817413 0.824896 0.817413C0.824896 0.817413 0.824896 0.792923 0.824896 0.792923"
		style="fill:#7e7f80"
	/>
	<path
		d="M0.824896 0.849409C0.824896 0.849409 1.031613 0.849409 1.031613 0.849409C1.031613 0.849409 1.031613 0.873899 1.031613 0.873899C1.031613 0.873899 0.824896 0.873899 0.824896 0.873899C0.824896 0.873899 0.824896 0.849409 0.824896 0.849409"
		style="fill:#7e7f80"
	/>
	<path
		d="M0.824896 0.905894C0.824896 0.905894 1.031613 0.905894 1.031613 0.905894C1.031613 0.905894 1.031613 0.930384 1.031613 0.930384C1.031613 0.930384 0.824896 0.930384 0.824896 0.930384C0.824896 0.930384 0.824896 0.905894 0.824896 0.905894"
		style="fill:#7e7f80"
	/>
	<path
		d="M0.824896 0.96238C0.824896 0.96238 1.031613 0.96238 1.031613 0.96238C1.031613 0.96238 1.031613 0.98687 1.031613 0.98687C1.031613 0.98687 0.824896 0.98687 0.824896 0.98687C0.824896 0.98687 0.824896 0.96238 0.824896 0.96238"
		style="fill:#7e7f80"
	/>
	<circle
		r="0.017693082"
		cy="0.72083384"
		cx="0.90008378"
		style="fill:#facb1b"
	/>
	<circle
		r="0.017693082"
		cy="0.72083384"
		cx="0.94984651"
		style="fill:#f99134"
	/>
	<circle
		r="0.017693082"
		cy="0.72083384"
		cx="0.99960542"
		style="fill:#fa5655"
	/>
	<path
		d="M0.311346 0.669855C0.311346 0.669855 0.498814 0.669855 0.498814 0.669855C0.512224 0.669855 0.523024 0.680655 0.523024 0.694065C0.523024 0.694065 0.523024 1.027316 0.523024 1.027316C0.523024 1.040726 0.512224 1.051526 0.498814 1.051526C0.498814 1.051526 0.311346 1.051526 0.311346 1.051526C0.297936 1.051526 0.287136 1.040726 0.287136 1.027316C0.287136 1.027316 0.287136 0.694065 0.287136 0.694065C0.287136 0.680655 0.297936 0.669855 0.311346 0.669855C0.311346 0.669855 0.311346 0.669855 0.311346 0.669855"
		style="fill:#3e3e3f"
	/>
	<path
		d="M0.301723 0.792923C0.301723 0.792923 0.50844 0.792923 0.50844 0.792923C0.50844 0.792923 0.50844 0.817413 0.50844 0.817413C0.50844 0.817413 0.301723 0.817413 0.301723 0.817413C0.301723 0.817413 0.301723 0.792923 0.301723 0.792923"
		style="fill:#7e7f80"
	/>
	<path
		d="M0.301723 0.849409C0.301723 0.849409 0.50844 0.849409 0.50844 0.849409C0.50844 0.849409 0.50844 0.873899 0.50844 0.873899C0.50844 0.873899 0.301723 0.873899 0.301723 0.873899C0.301723 0.873899 0.301723 0.849409 0.301723 0.849409"
		style="fill:#7e7f80"
	/>
	<path
		d="M0.301723 0.905894C0.301723 0.905894 0.50844 0.905894 0.50844 0.905894C0.50844 0.905894 0.50844 0.930384 0.50844 0.930384C0.50844 0.930384 0.301723 0.930384 0.301723 0.930384C0.301723 0.930384 0.301723 0.905894 0.301723 0.905894"
		style="fill:#7e7f80"
	/>
	<path
		d="M0.301723 0.96238C0.301723 0.96238 0.50844 0.96238 0.50844 0.96238C0.50844 0.96238 0.50844 0.98687 0.50844 0.98687C0.50844 0.98687 0.301723 0.98687 0.301723 0.98687C0.301723 0.98687 0.301723 0.96238 0.301723 0.96238"
		style="fill:#7e7f80"
	/>
	<circle
		r="0.017693082"
		cy="0.72083384"
		cx="0.37691075"
		style="fill:#facb1b"
	/>
	<circle
		r="0.017693082"
		cy="0.72083384"
		cx="0.42667347"
		style="fill:#f99134"
	/>
	<circle
		r="0.017693082"
		cy="0.72083384"
		cx="0.47643238"
		style="fill:#fa5655"
	/>
	<path
		d="M0.572932 0.669855C0.572932 0.669855 0.7604 0.669855 0.7604 0.669855C0.77381 0.669855 0.78461 0.680655 0.78461 0.694065C0.78461 0.694065 0.78461 1.027316 0.78461 1.027316C0.78461 1.040726 0.77381 1.051526 0.7604 1.051526C0.7604 1.051526 0.572932 1.051526 0.572932 1.051526C0.559522 1.051526 0.548722 1.040726 0.548722 1.027316C0.548722 1.027316 0.548722 0.694065 0.548722 0.694065C0.548722 0.680655 0.559522 0.669855 0.572932 0.669855C0.572932 0.669855 0.572932 0.669855 0.572932 0.669855"
		style="fill:#3e3e3f"
	/>
	<path
		d="M0.563309 0.792923C0.563309 0.792923 0.770026 0.792923 0.770026 0.792923C0.770026 0.792923 0.770026 0.817413 0.770026 0.817413C0.770026 0.817413 0.563309 0.817413 0.563309 0.817413C0.563309 0.817413 0.563309 0.792923 0.563309 0.792923"
		style="fill:#7e7f80"
	/>
	<path
		d="M0.563309 0.849409C0.563309 0.849409 0.770026 0.849409 0.770026 0.849409C0.770026 0.849409 0.770026 0.873899 0.770026 0.873899C0.770026 0.873899 0.563309 0.873899 0.563309 0.873899C0.563309 0.873899 0.563309 0.849409 0.563309 0.849409"
		style="fill:#7e7f80"
	/>
	<path
		d="M0.563309 0.905894C0.563309 0.905894 0.770026 0.905894 0.770026 0.905894C0.770026 0.905894 0.770026 0.930384 0.770026 0.930384C0.770026 0.930384 0.563309 0.930384 0.563309 0.930384C0.563309 0.930384 0.563309 0.905894 0.563309 0.905894"
		style="fill:#7e7f80"
	/>
	<path
		d="M0.563309 0.96238C0.563309 0.96238 0.770026 0.96238 0.770026 0.96238C0.770026 0.96238 0.770026 0.98687 0.770026 0.98687C0.770026 0.98687 0.563309 0.98687 0.563309 0.98687C0.563309 0.98687 0.563309 0.96238 0.563309 0.96238"
		style="fill:#7e7f80"
	/>
	<circle
		r="0.017693082"
		cy="0.72083384"
		cx="0.63849676"
		style="fill:#facb1b"
	/>
	<circle
		r="0.017693082"
		cy="0.72083384"
		cx="0.68825948"
		style="fill:#f99134"
	/>
	<circle
		r="0.017693082"
		cy="0.72083384"
		cx="0.73801839"
		style="fill:#fa5655"
	/>
	<path
		d="M0.69968 0.281808C0.640556409672 0.281840893793 0.587329189921 0.315170201971 0.565001 0.36614C0.559982322563 0.365132625907 0.554868658723 0.364623270138 0.549741 0.36462C0.511299246645 0.364634214787 0.479153342429 0.39261171096 0.475461 0.429268C0.436465065398 0.441696271431 0.409899079273 0.478519724972 0.409861 0.520197C0.409860642641 0.572859393124 0.451707994596 0.615551571795 0.503331 0.615554C0.507127189913 0.615515313543 0.510917543968 0.615240738292 0.514681 0.6147318C0.516781 0.6152206 0.518881 0.615554 0.521081 0.615554C0.521081 0.615554 0.789158 0.615554 0.789158 0.615554C0.791158 0.615554 0.792958 0.6153206 0.794858 0.6149429C0.798672306091 0.615345580702 0.802503827456 0.615549539126 0.806338 0.615554C0.836623721615 0.615558745697 0.86567049117 0.603134008195 0.88708671465 0.581013787836C0.908502938129 0.558893567476 0.920533810701 0.528890353264 0.920532 0.4976062C0.920511663306 0.446254584158 0.888327611669 0.400818452007 0.840952 0.3852584C0.825088312631 0.324595051875 0.766758246737 0.281875486555 0.699698 0.2818073C0.699698 0.2818073 0.69968 0.281808 0.69968 0.281808"
		style="fill:#f9f9f9"
	/>
</svg>
