<?xml version="1.0" encoding="UTF-8" standalone="no"?>
<svg
	xmlns="http://www.w3.org/2000/svg"
	viewBox="0 0 1.3333333 1.3333332"
	height="120"
	width="120"
>
	<rect
		y="-1.6543612e-24"
		x="-4.4408921e-16"
		height="1.3333333"
		width="1.3333333"
		style="fill:#fabc3d"
	/>
	<path
		d="M0.66497206 0.21633239C0.58367206 0.21639599 0.50575006 0.24881539 0.44839906 0.30643339C0.44839906 0.30643339 0.46988906 0.32792539 0.46988906 0.32792539C0.52153906 0.27600739 0.59173606 0.24678939 0.66497006 0.24672439C0.73806006 0.24678909 0.80812106 0.27588939 0.85974806 0.32762139C0.85974806 0.32762139 0.88123806 0.30612939 0.88123806 0.30612939C0.82391206 0.24869859 0.74611706 0.21639689 0.66497206 0.21633239C0.66497206 0.21633239 0.66497206 0.21633239 0.66497206 0.21633239M0.66497206 0.33288369C0.61801206 0.33292979 0.57315206 0.35238169 0.54102206 0.38663469C0.54102206 0.38663469 0.56494206 0.41055569 0.56494206 0.41055569C0.59071206 0.38262969 0.62697206 0.36672169 0.66497106 0.36666169C0.70283106 0.36670259 0.73897106 0.38247469 0.76474106 0.41020469C0.76474106 0.41020469 0.78857106 0.38637769 0.78857106 0.38637769C0.75648106 0.35230869 0.71177106 0.33295969 0.66497206 0.33288369C0.66497206 0.33288369 0.66497206 0.33288369 0.66497206 0.33288369M0.66497206 0.43996049C0.64596206 0.43996619 0.63054206 0.45537949 0.63054206 0.47439349C0.63053306 0.49341649 0.64595206 0.50884349 0.66497206 0.50884949C0.68400206 0.50886039 0.69944206 0.49342849 0.69943206 0.47439349C0.69942806 0.45536749 0.68400206 0.43994949 0.66497206 0.43996049C0.66497206 0.43996049 0.66497206 0.43996049 0.66497206 0.43996049"
		style="fill:#ffffff"
	/>
	<path
		d="M0.38425706 0.56560889C0.38425706 0.56560889 0.94908406 0.56560889 0.94908406 0.56560889C0.96351406 0.56560889 0.97514406 0.57723489 0.97514406 0.59166989C0.97514406 0.59166989 0.97514406 0.96931359 0.97514406 0.96931359C0.97514406 0.98374859 0.96352406 0.99537459 0.94908406 0.99537459C0.94908406 0.99537459 0.38425706 0.99537459 0.38425706 0.99537459C0.36982706 0.99537459 0.35819706 0.98374859 0.35819706 0.96931359C0.35819706 0.96931359 0.35819706 0.59166959 0.35819706 0.59166959C0.35819706 0.57723459 0.36982706 0.56560859 0.38425706 0.56560889C0.38425706 0.56560889 0.38425706 0.56560889 0.38425706 0.56560889"
		style="fill:#f2f2f2"
	/>
	<path
		d="M0.39401006 0.58539119C0.39401006 0.58539119 0.93932706 0.58539119 0.93932706 0.58539119C0.94662706 0.58539119 0.95249706 0.59127119 0.95249706 0.59855419C0.95249706 0.59855419 0.95249706 0.93290989 0.95249706 0.93290989C0.95249706 0.94022989 0.94669706 0.94607289 0.93932706 0.94607289C0.93932706 0.94607289 0.39401006 0.94607289 0.39401006 0.94607289C0.38671006 0.94607289 0.38085006 0.94019289 0.38085006 0.93290989C0.38085006 0.93290989 0.38085006 0.59855449 0.38085006 0.59855449C0.38085006 0.59123449 0.38665006 0.58539149 0.39401006 0.58539119C0.39401006 0.58539119 0.39401006 0.58539119 0.39401006 0.58539119"
		style="fill:#333333"
	/>
	<path
		d="M0.26535406 0.95143679C0.26535406 0.95143679 1.0679801 0.95143679 1.0679801 0.95143679C1.0729801 0.95143679 1.0767801 0.95541679 1.0767801 0.96026679C1.0767801 0.96026679 1.0767801 0.96736679 1.0767801 0.96736679C1.0767801 0.98987479 1.0383501 1.01130679 0.96530806 1.01130679C0.96530806 1.01130679 0.36662206 1.01130679 0.36662206 1.01130679C0.29279206 1.01130679 0.25650006 0.98592379 0.25650006 0.96736679C0.25650006 0.96736679 0.25650006 0.96026679 0.25650006 0.96026679C0.25650006 0.95531679 0.26050006 0.95143679 0.26530006 0.95143679C0.26530006 0.95143679 0.26535406 0.95143679 0.26535406 0.95143679"
		style="fill:#f2f2f2"
	/>
	<path
		d="M0.62175806 0.95143679C0.62175806 0.95143679 0.71157806 0.95143679 0.71157806 0.95143679C0.71157806 0.95143679 0.71157806 0.96090679 0.71157806 0.96090679C0.71157806 0.96090679 0.62175806 0.96090679 0.62175806 0.96090679C0.62175806 0.96090679 0.62175806 0.95143679 0.62175806 0.95143679"
		style="fill:#999999"
	/>
	<path
		d="M0.39402006 0.58539119C0.38672006 0.58539149 0.38085006 0.59124119 0.38085006 0.59855619C0.38085006 0.59855619 0.38085006 0.91068649 0.38085006 0.91068649C0.38085006 0.91068649 0.64866106 0.58539129 0.64866106 0.58539129C0.64866106 0.58539129 0.39402006 0.58539119 0.39402006 0.58539119"
		style="fill:#4d4d4d"
	/>
</svg>
