<?xml version="1.0" encoding="UTF-8" standalone="no"?>
<svg
	xmlns="http://www.w3.org/2000/svg"
	viewBox="0 0 1.3333333 1.3333332"
	height="120"
	width="120"
>
	<path
		style="fill:#ffff00"
		d="m 1327.8922,969.23334 c 0,0 15.5102,-71.68512 22.0418,-82.5001 8.8071,-14.58268 70.6087,-26.7857 70.6087,-26.7857 0,0 62.9328,8.91011 71.3561,22.85721 7.168,11.86878 26.5248,86.42859 26.5248,86.42859 z"
		clip-path="url(#clipPath5736)"
	/>



	<path
		style="fill:#ffff00"
		d="m 1327.8922,969.23334 c 0,0 15.5102,-71.68512 22.0418,-82.5001 8.8071,-14.58268 70.6087,-26.7857 70.6087,-26.7857 0,0 62.9328,8.91011 71.3561,22.85721 7.168,11.86878 26.5248,86.42859 26.5248,86.42859 z"
		clip-path="url(#clipPath5736-4)"
	/>





	<path
		style="fill:#ffff00"
		d="m 1327.8922,969.23334 c 0,0 15.5102,-71.68512 22.0418,-82.5001 8.8071,-14.58268 70.6087,-26.7857 70.6087,-26.7857 0,0 62.9328,8.91011 71.3561,22.85721 7.168,11.86878 26.5248,86.42859 26.5248,86.42859 z"
		clip-path="url(#clipPath5736-9)"
	/>




	<path
		d="M 0,0 H 1.3333333 V 1.3333333 H 0 Z"
		style="fill:#ececec"
	/>
	<path
		style="fill:#cccccc"
		d="M0.66671118 0.31737872C0.63958418 0.31737872 0.61318318 0.32044772 0.58781718 0.32625772C0.58952718 0.33201072 0.59136718 0.33876082 0.59376718 0.34729562C0.59706718 0.35776512 0.59954718 0.36522222 0.60117718 0.36962752C0.60117718 0.36962752 0.65377318 0.54371134 0.65377318 0.54371134C0.67003618 0.54299012 0.68661518 0.54219334 0.70007518 0.54182434C0.71054118 0.54125533 0.72106318 0.54087669 0.73180518 0.54060834C0.74254718 0.54031122 0.75069518 0.54011188 0.75620518 0.53983647C0.76199518 0.53956341 0.76837518 0.53941246 0.77526118 0.53941246C0.81823218 0.53941246 0.85311318 0.54510646 0.88010818 0.55639726C0.90737818 0.56769106 0.92682618 0.58267736 0.93839418 0.60140566C0.94996418 0.61986056 0.95581218 0.64006986 0.95581218 0.66210656C0.95581218 0.67918356 0.95204218 0.69548316 0.94460318 0.71090806C0.93744318 0.72605796 0.92837518 0.73858616 0.91735718 0.74850136C0.90716618 0.75814136 0.89586718 0.76566816 0.88347118 0.77117796C0.87107418 0.77641096 0.85732018 0.78125746 0.84217118 0.78566276C0.88596818 0.78842176 0.92269918 0.80095016 0.95244968 0.82325606C0.96020968 0.82906806 0.96697868 0.83538846 0.97271268 0.84230976C1.00174268 0.79116256 1.01832468 0.73202351 1.01832468 0.6690046C1.01832468 0.47480163 0.86091116 0.31738842 0.66670836 0.31738826C0.66670836 0.31738826 0.66671118 0.31737872 0.66671118 0.31737872M0.50875088 0.35479922C0.50802978 0.35514708 0.50731088 0.3554697 0.50659088 0.35583922C0.50659088 0.35583922 0.43097688 0.56794685 0.43097688 0.56794685C0.43097688 0.56794685 0.57152008 0.56794685 0.57152008 0.56794685C0.57152008 0.56794685 0.50875008 0.3548036 0.50875008 0.3548036C0.50875008 0.3548036 0.50875088 0.35479922 0.50875088 0.35479922M0.46270788 0.38256292C0.37332488 0.44631802 0.31500858 0.55085056 0.31500858 0.66899494C0.31500858 0.70617474 0.32086858 0.74201354 0.33156358 0.77565219C0.33758358 0.74032909 0.34887458 0.70380679 0.36079358 0.66632181C0.36092198 0.66592673 0.36114138 0.66533222 0.36131548 0.66485381C0.36133448 0.66461623 0.36138218 0.664408 0.36140168 0.664158C0.36140168 0.664158 0.45374668 0.40885265 0.45374668 0.40885265C0.45535668 0.40434965 0.45858668 0.39500855 0.46271668 0.38255485C0.46271668 0.38255485 0.46270788 0.38256292 0.46270788 0.38256292M0.76078038 0.56992494C0.74507938 0.56992494 0.72962838 0.57129194 0.71447838 0.57406794C0.71447838 0.57406794 0.71447838 0.77488065 0.71447838 0.77488065C0.71447838 0.77488065 0.75327838 0.77488065 0.75327838 0.77488065C0.79266838 0.77488065 0.82033438 0.76574465 0.83631138 0.74728975C0.85256138 0.72883485 0.86071138 0.70407515 0.86071138 0.67322445C0.86071138 0.64512865 0.85288138 0.62083695 0.83717238 0.60045235C0.82147138 0.58007035 0.79603638 0.56992955 0.76077938 0.56992955C0.76077938 0.56992955 0.76078038 0.56992494 0.76078038 0.56992494M0.42520098 0.60182724C0.38068098 0.73566875 0.46561098 0.77660545 0.45572398 0.85359752C0.45152398 0.88633172 0.43035698 0.90238812 0.40666298 0.90567562C0.45882398 0.96294642 0.52967038 1.00289162 0.60954498 1.0159546C0.61180498 1.014965 0.61373498 1.0138446 0.61532498 1.0125046C0.62083498 1.0081046 0.62421498 1.0002596 0.62558598 0.988966C0.62722598 0.9776873 0.62808598 0.9595561 0.62808598 0.9348182C0.62808598 0.9348182 0.62808598 0.79936574 0.62808598 0.79936574C0.62736478 0.77612564 0.62684598 0.75535024 0.61730998 0.71960954C0.61482998 0.70941604 0.61091998 0.69519454 0.60541098 0.67701554C0.60541098 0.67701554 0.58273498 0.60182904 0.58273498 0.60182904C0.58273498 0.60182904 0.42520598 0.60182904 0.42520598 0.60182904C0.42520598 0.60182904 0.42520098 0.60182724 0.42520098 0.60182724M0.71447848 0.80539879C0.71447848 0.80539879 0.71447848 0.805485 0.71447848 0.805485C0.71447848 0.805485 0.71447848 1.0132818 0.71447848 1.0132818C0.71916848 1.0135548 0.72422848 1.0139523 0.72974048 1.0145018C0.73028778 1.014526 0.73116048 1.014562 0.73173048 1.0145877C0.79473648 1.0028127 0.85179728 0.9742622 0.89814058 0.9337111C0.89903788 0.9273881 0.89961058 0.9207685 0.89961058 0.9137064C0.89961058 0.8969019 0.89584058 0.8803784 0.88840158 0.8641283C0.88124158 0.8475989 0.86732858 0.833603 0.84667158 0.8223092C0.82628658 0.8110129 0.79808458 0.8054083 0.76200058 0.8054083C0.76200058 0.8054083 0.71449258 0.8054083 0.71449258 0.8054083C0.71449258 0.8054083 0.71447848 0.80539879 0.71447848 0.80539879"
	/>
</svg>
