<?xml version="1.0" encoding="UTF-8" standalone="no"?>
<svg
	xmlns="http://www.w3.org/2000/svg"
	viewBox="0 0 1.3333333 1.3333332"
	height="120"
	width="120"
>
	<rect
		y="-1.6543612e-24"
		x="-2.1175824e-22"
		height="1.3333333"
		width="1.3333333"
		style="fill:#dd3d36"
	/>
	<path
		d="m 0.37693439,0.35915899 c 0,0 0.579466,0 0.579466,0 0,0 0,0.615016 0,0.615016 0,0 -0.579466,0 -0.579466,0 0,0 0,-0.615016 0,-0.615016"
		style="fill:#ffffff"
	/>
	<path
		d="m 0.37662839,0.33603899 c -7.0846e-4,6.2353e-4 -0.001376,0.001292 -0.002,0.002 -6.6633e-4,-3.001e-5 -0.001334,-3.001e-5 -0.002,0 -6.6633e-4,-3.001e-5 -0.001334,-3.001e-5 -0.002,0 -6.6633e-4,-3.001e-5 -0.001334,-3.001e-5 -0.002,0 -7.0846e-4,6.2353e-4 -0.001376,0.001292 -0.002,0.002 -6.6633e-4,-3.001e-5 -0.001334,-3.001e-5 -0.002,0 -7.0846e-4,6.2353e-4 -0.001376,0.001292 -0.002,0.002 -7.0846e-4,6.2353e-4 -0.001376,0.001292 -0.002,0.002 -7.0846e-4,6.2353e-4 -0.001376,0.001292 -0.002,0.002 -3.001e-5,6.6633e-4 -3.001e-5,0.001334 0,0.002 -7.0846e-4,6.2353e-4 -0.001376,0.001292 -0.002,0.002 -3.001e-5,6.6633e-4 -3.001e-5,0.001334 0,0.002 -7.0846e-4,6.2353e-4 -0.001376,0.001292 -0.002,0.002 -3.001e-5,6.6633e-4 -3.001e-5,0.001334 0,0.002 -3.001e-5,6.6633e-4 -3.001e-5,0.001334 0,0.002 -3.001e-5,6.6633e-4 -3.001e-5,0.001334 0,0.002 0,0 0,0.615234 0,0.615234 -3.001e-5,6.6633e-4 -3.001e-5,0.001334 0,0.002 -3.001e-5,6.6633e-4 -3.001e-5,0.001334 0,0.002 -3.001e-5,6.6633e-4 -3.001e-5,0.001334 0,0.002 6.2353e-4,7.0846e-4 0.001292,0.001376 0.002,0.002 -3.001e-5,6.6633e-4 -3.001e-5,0.001334 0,0.002 6.2353e-4,7.0846e-4 0.001292,0.001376 0.002,0.002 6.2353e-4,7.0846e-4 0.001292,0.001376 0.002,0.002 -3.001e-5,6.6633e-4 -3.001e-5,0.001334 0,0.002 6.2353e-4,7.0846e-4 0.001292,0.001376 0.002,0.002 6.6633e-4,3.001e-5 0.001334,3.001e-5 0.002,0 6.2353e-4,7.0846e-4 0.001292,0.001376 0.002,0.002 6.6633e-4,3.001e-5 0.001334,3.001e-5 0.002,0 6.2353e-4,7.0846e-4 0.001292,0.001376 0.002,0.002 6.6633e-4,3.001e-5 0.001334,3.001e-5 0.002,0 6.6633e-4,3.001e-5 0.001334,3.001e-5 0.002,0 6.6633e-4,3.001e-5 0.001334,3.001e-5 0.002,0 0,0 0.580078,0 0.580078,0 6.6633e-4,3.001e-5 0.001334,3.001e-5 0.002,0 6.6633e-4,3.001e-5 0.001334,3.001e-5 0.002,0 6.6633e-4,3.001e-5 0.001334,3.001e-5 0.002,0 7.0846e-4,-6.2353e-4 0.001376,-0.001292 0.002,-0.002 6.6633e-4,3.001e-5 0.001334,3.001e-5 0.002,0 7.0846e-4,-6.2353e-4 0.001376,-0.001292 0.002,-0.002 7.0846e-4,-6.2353e-4 0.001376,-0.001292 0.002,-0.002 6.6633e-4,3.001e-5 0.001334,3.001e-5 0.002,0 7.0846e-4,-6.2353e-4 0.001376,-0.001292 0.002,-0.002 3.001e-5,-6.6633e-4 3.001e-5,-0.001334 0,-0.002 7.0846e-4,-6.2353e-4 0.001376,-0.001292 0.002,-0.002 7.0846e-4,-6.2353e-4 0.001376,-0.001292 0.002,-0.002 3.001e-5,-6.6633e-4 3.001e-5,-0.001334 0,-0.002 3.001e-5,-6.6633e-4 3.001e-5,-0.001334 0,-0.002 3.001e-5,-6.6633e-4 3.001e-5,-0.001334 0,-0.002 3.001e-5,-6.6633e-4 3.001e-5,-0.001334 0,-0.002 0,0 0,-0.615234 0,-0.615234 3.001e-5,-6.6633e-4 3.001e-5,-0.001334 0,-0.002 3.001e-5,-6.6633e-4 3.001e-5,-0.001334 0,-0.002 -3.8635e-4,-0.002051 -0.00106,-0.004037 -0.002,-0.0059 3.001e-5,-6.6633e-4 3.001e-5,-0.001334 0,-0.002 -6.2353e-4,-7.0846e-4 -0.001292,-0.001376 -0.002,-0.002 3.001e-5,-6.6633e-4 3.001e-5,-0.001334 0,-0.002 -6.6633e-4,-3.001e-5 -0.001334,-3.001e-5 -0.002,0 -6.2353e-4,-7.0846e-4 -0.001292,-0.001376 -0.002,-0.002 -6.2353e-4,-7.0846e-4 -0.001292,-0.001376 -0.002,-0.002 -6.6633e-4,-3.001e-5 -0.001334,-3.001e-5 -0.002,0 -6.2353e-4,-7.0846e-4 -0.001292,-0.001376 -0.002,-0.002 -6.6633e-4,-3.001e-5 -0.001334,-3.001e-5 -0.002,0 -6.6633e-4,-3.001e-5 -0.001334,-3.001e-5 -0.002,0 -6.2353e-4,-7.0846e-4 -0.001292,-0.001376 -0.002,-0.002 -6.6633e-4,-3.001e-5 -0.001334,-3.001e-5 -0.002,0 0,0 -0.580078,-1e-4 -0.580078,-1e-4 m 0.02344,0.04492 c 0,0 0.535156,0 0.535156,0 0,0 0,0.570313 0,0.570313 0,0 -0.535156,0 -0.535156,0 0,0 0,-0.570313 0,-0.570313"
		style="fill:#1a1a1a"
	/>
	<path
		d="m 0.66602539,0.22951499 c -0.03971,-5e-6 -0.07295,0.03264 -0.07411,0.07211 0,0 -0.0418,0 -0.0418,0 -0.01751,0 -0.0316,0.01409 -0.0316,0.0316 0,0 0,0.08032 0,0.08032 0,0.01751 0.01409,0.03162 0.0316,0.03162 0,0 0.230426,0 0.230426,0 0.01751,0 0.0316,-0.01411 0.0316,-0.03162 0,0 0,-0.08032 0,-0.08032 0,-0.01751 -0.01409,-0.0316 -0.0316,-0.0316 0,0 -0.04236,0 -0.04236,0 -0.0011,-0.03947 -0.03245,-0.07211 -0.07216,-0.07211 0,0 4e-6,0 4e-6,0 m 0,0.03516 c 0.02035,0 0.03587,0.01683 0.03691,0.03696 0,0 -0.07576,0 -0.07576,0 0.0012,-0.02014 0.01849,-0.03696 0.03885,-0.03696 0,0 0,0 0,0"
		style="fill:#ffdd55"
	/>
	<path
		d="m 0.55678939,0.51241699 c 0,0 -0.02839,0.02839 -0.02839,0.02839 0,0 -0.0284,-0.0284 -0.0284,-0.0284 0,0 -0.01955,0.01955 -0.01955,0.01955 0,0 0.0284,0.0284 0.0284,0.0284 0,0 -0.0284,0.0284 -0.0284,0.0284 0,0 0.01955,0.01955 0.01955,0.01955 0,0 0.0284,-0.0284 0.0284,-0.0284 0,0 0.0284,0.0284 0.0284,0.0284 0,0 0.01955,-0.01955 0.01955,-0.01955 0,0 -0.0284,-0.0284 -0.0284,-0.0284 0,0 0.02839,-0.02839 0.02839,-0.02839 0,0 -0.01955,-0.01955 -0.01955,-0.01955"
		style="fill:#5b5c5f"
	/>
	<path
		d="m 0.84514039,0.58022999 c 0,0 -0.02839,0.02839 -0.02839,0.02839 0,0 -0.0284,-0.0284 -0.0284,-0.0284 0,0 -0.01955,0.01955 -0.01955,0.01955 0,0 0.0284,0.0284 0.0284,0.0284 0,0 -0.0284,0.0284 -0.0284,0.0284 0,0 0.01955,0.01955 0.01955,0.01955 0,0 0.0284,-0.0284 0.0284,-0.0284 0,0 0.0284,0.0284 0.0284,0.0284 0,0 0.01955,-0.01955 0.01955,-0.01955 0,0 -0.0284,-0.0284 -0.0284,-0.0284 0,0 0.02839,-0.02839 0.02839,-0.02839 0,0 -0.01955,-0.01955 -0.01955,-0.01955"
		style="fill:#5b5c5f"
	/>
	<circle
		r="0.053059615"
		cy="0.81974602"
		cx="0.72129059"
		style="opacity:1;vector-effect:none;fill:none;fill-opacity:1;fill-rule:nonzero;stroke:#df2c2c;stroke-width:0.04870946;stroke-linecap:butt;stroke-linejoin:round;stroke-miterlimit:4;stroke-dasharray:none;stroke-dashoffset:0;stroke-opacity:1"
	/>
	<path
		d="m 0.72603951,0.57526922 c 0,0 -0.10494776,0.0169922 -0.10494776,0.0169922 0,0 0.0183378,0.0225044 0.0183378,0.0225044 -0.0913934,0.0755845 -0.12367668,0.1694656 -0.12367668,0.24832892 0,0 0.0449222,0 0.0449222,0 0,-0.0673222 0.0252544,-0.14635554 0.1069011,-0.21382331 0,0 0.0207033,0.02539 0.0207033,0.02539 0,0 0.03776,-0.0993922 0.03776,-0.0993922"
		style="fill:#df2c2c"
	/>
</svg>
