<?xml version="1.0" encoding="UTF-8" standalone="no"?>
<svg
	xmlns="http://www.w3.org/2000/svg"
	viewBox="0 0 1.3333333 1.3333332"
	height="120"
	width="120"
>
	<rect
		y="-1.6543612e-24"
		x="0"
		height="1.3333333"
		width="1.3333333"
		style="fill:#32bea6"
	/>
	<rect
		ry="0.048896551"
		rx="0.048896551"
		y="0.28649601"
		x="0.37573242"
		height="0.76034135"
		width="0.58186895"
		style="fill:#f9f9f9"
	/>
	<path
		d="m 0.4221857,0.36350801 c 0,0 0.4805152,0 0.4805152,0 0,0 0,0.55986548 0,0.55986548 0,0 -0.4805152,0 -0.4805152,0 0,0 0,-0.55986548 0,-0.55986548"
		style="fill:#333333"
	/>
	<path
		d="m 0.4221857,0.36350801 c 0,0 0,0.44977827 0,0.44977827 0,0 0.4622309,-0.44977827 0.4622309,-0.44977827 0,0 -0.4622309,0 -0.4622309,0"
		style="fill:#4d4d4d"
	/>
	<path
		d="m 0.6740011,0.33539214 c -1e-7,0.003891 -0.00155,0.007623 -0.0043,0.0103738 -0.00275,0.002751 -0.00648,0.004296 -0.010375,0.004295 -0.00389,1.07e-6 -0.00762,-0.001544 -0.010375,-0.004295 -0.00275,-0.002751 -0.0043,-0.006483 -0.0043,-0.0103738 10e-8,-0.003891 0.00155,-0.007623 0.0043,-0.0103738 0.00275,-0.002751 0.00648,-0.004296 0.010375,-0.004295 0.00389,-1.07e-6 0.00762,0.001544 0.010375,0.004295 0.00275,0.002751 0.0043,0.006483 0.0043,0.0103738 0,0 0,0 0,0"
		style="fill:#f2f2f2"
	/>
	<path
		d="m 0.6813365,0.98266065 c 0,0.006971 -0.00277,0.0136567 -0.0077,0.0185857 -0.00493,0.00493 -0.011616,0.0077 -0.018587,0.0077 -0.00697,10e-7 -0.013657,-0.00277 -0.018587,-0.0077 -0.00493,-0.004929 -0.0077,-0.0116146 -0.0077,-0.0185857 -10e-8,-0.006971 0.00277,-0.0136567 0.0077,-0.0185857 0.00493,-0.004929 0.011616,-0.007698 0.018587,-0.007696 0.00697,-1.09e-6 0.013657,0.002767 0.018587,0.007696 0.00493,0.004929 0.0077,0.0116146 0.0077,0.0185857 0,0 0,0 0,0"
		style="fill:#cfd3d4"
	/>
	<rect
		y="0.54136908"
		x="0.50286484"
		height="0.086791374"
		width="0.072122417"
		style="fill:#facb1b"
	/>
	<rect
		y="0.4924725"
		x="0.62602472"
		height="0.13568777"
		width="0.072123758"
		style="fill:#17b198"
	/>
	<rect
		y="0.437464"
		x="0.74918079"
		height="0.19069637"
		width="0.072123758"
		style="fill:#059bbf"
	/>
	<circle
		r="0.098404311"
		cy="0.766904"
		cx="0.56887484"
		style="fill:#facb1b"
	/>
	<circle
		r="0.016502585"
		cy="0.70678991"
		cx="0.72633553"
		style="fill:#cfd3d4"
	/>
	<rect
		y="0.69981998"
		x="0.760149"
		height="0.013940169"
		width="0.085742712"
		style="fill:#cfd3d4"
	/>
	<circle
		r="0.016502585"
		cy="0.75635642"
		cx="0.72633553"
		style="fill:#cfd3d4"
	/>
	<rect
		y="0.74938649"
		x="0.760149"
		height="0.013940169"
		width="0.085742712"
		style="fill:#cfd3d4"
	/>
	<circle
		r="0.016502585"
		cy="0.80592293"
		cx="0.72633553"
		style="fill:#cfd3d4"
	/>
	<rect
		y="0.79895294"
		x="0.760149"
		height="0.013940169"
		width="0.085742712"
		style="fill:#cfd3d4"
	/>
	<path
		d="m 0.5639517,0.76567907 c 0,0 -0.088907,0.0325182 -0.088907,0.0325182 0.013457,0.0403964 0.051233,0.0676664 0.093812,0.0677215 0.030129,-3.467e-5 0.058602,-0.0137852 0.077363,-0.03736 0,0 -0.082268,-0.0628797 -0.082268,-0.0628797"
		style="fill:#4ac3af"
	/>
	<path
		d="m 0.6119251,0.67789279 c 0,0 -0.047973,0.0877863 -0.047973,0.0877863 0,0 0.047065,0.0906829 0.047065,0.0906829 0.03466,-0.0163112 0.056801,-0.0511508 0.056853,-0.0894566 -5.54e-5,-0.0379385 -0.021784,-0.0725098 -0.055945,-0.0890126 0,0 0,0 0,0"
		style="fill:#21b2d1"
	/>
	<path
		d="m 0.5688566,0.66789206 c -0.00163,1.584e-5 -0.00327,7.215e-5 -0.0049,1.6888e-4 0,0 0,0.0976179 0,0.0976179 0,0 0.092057,-0.0455634 0.092057,-0.0455634 -0.017224,-0.0321217 -0.050704,-0.0521833 -0.087152,-0.0522236 0,0 -5e-6,2.2e-7 -5e-6,2.2e-7"
		style="fill:#fa5655"
	/>
</svg>
