<?xml version="1.0" encoding="UTF-8" standalone="no"?>
<svg
	xmlns="http://www.w3.org/2000/svg"
	viewBox="0 0 1.3333333 1.3333332"
	height="120"
	width="120"
>
	<rect
		y="-1.6543612e-24"
		x="-2.220446e-16"
		height="1.3333333"
		width="1.3333333"
		style="fill:#ffb42b"
	/>
	<rect
		ry="0"
		rx="0"
		y="-0.36979076"
		x="0.92932981"
		height="0.067753188"
		width="0.045168787"
		style="fill:#cccccc"
	/>
	<path
		d="M0.958805 0.37550099C0.943915 0.36061099 0.919945 0.36062099 0.905055 0.37551499C0.905055 0.37551499 0.892005 0.38856499 0.892005 0.38856499C0.892005 0.38856499 0.957655 0.45421499 0.957655 0.45421499C0.957655 0.45421499 0.970705 0.44116499 0.970705 0.44116499C0.985595 0.42627499 0.985615 0.40230499 0.970719 0.38741499C0.970719 0.38741499 0.958805 0.37550099 0.958805 0.37550099"
		style="fill:#ffffff"
	/>
	<rect
		ry="0"
		rx="0"
		y="0.29627872"
		x="0.62588882"
		height="0.067753188"
		width="0.081554763"
		style="fill:#cccccc"
	/>
	<path
		d="M0.603668 0.25361399C0.582608 0.25361399 0.565668 0.27057399 0.565668 0.29163399C0.565668 0.29163399 0.565668 0.31008399 0.565668 0.31008399C0.565668 0.31008399 0.767665 0.31008399 0.767665 0.31008399C0.767665 0.31008399 0.767665 0.29163399 0.767665 0.29163399C0.767665 0.27057399 0.750725 0.25361399 0.729665 0.25361399C0.729665 0.25361399 0.603668 0.25361399 0.603668 0.25361399"
		style="fill:#ffffff"
	/>
	<circle
		r="0.32958555"
		cy="0.66666675"
		cx="0.66666782"
		style="fill:#ffffff"
	/>
	<circle
		r="0.28303391"
		cy="0.66666675"
		cx="0.66666782"
		style="fill:#9ce5f4"
	/>
	<path
		d="M0.585674 0.53003499C0.517634 0.53003499 0.502024 0.58657499 0.510414 0.63642999C0.521784 0.70402999 0.662133 0.80045799 0.666034 0.80256099C0.666034 0.80256099 0.666034 0.80329799 0.666034 0.80329799C0.666034 0.80329799 0.66665 0.80293699 0.666664 0.80292999C0.666678 0.80293699 0.667293 0.80329799 0.667293 0.80329799C0.667293 0.80329799 0.667293 0.80256099 0.667293 0.80256099C0.671193 0.80046099 0.811535 0.70402099 0.822914 0.63642999C0.831314 0.58657999 0.815714 0.53003499 0.747654 0.53003499C0.691424 0.53003499 0.668224 0.58195499 0.666664 0.58559499C0.665064 0.58199499 0.641904 0.53003499 0.585674 0.53003499C0.585674 0.53003499 0.585674 0.53003499 0.585674 0.53003499"
		style="fill:#e04f5f"
	/>
</svg>
