<?xml version="1.0" encoding="UTF-8" standalone="no"?>
<svg
	xmlns="http://www.w3.org/2000/svg"
	viewBox="0 0 1.3333333 1.3333332"
	height="120"
	width="120"
>
	<rect
		style="fill:#25b7d3"
		width="1.3333333"
		height="1.3333333"
		x="0"
		y="2.220446e-16"
	/>
	<path
		style="fill:#ececec"
		d="M0.58920185 0.36723601C0.546145263964 0.324263743605 0.481940631505 0.310433463529 0.4250103 0.33186761C0.4250103 0.33186761 0.53504936 0.44079671 0.53504936 0.44079671C0.53504936 0.44079671 0.55180126 0.50337231 0.55180126 0.50337231C0.55180126 0.50337231 0.50602106 0.54915431 0.50602106 0.54915431C0.50602106 0.54915431 0.44346186 0.53238781 0.44346186 0.53238781C0.44346186 0.53238781 0.3344511 0.42273621 0.3344511 0.42273621C0.313198140722 0.479573014466 0.327047319802 0.543583936038 0.3698938 0.58655241C0.412496328816 0.629057426859 0.475843304579 0.643077178307 0.53240291 0.62251841C0.53240291 0.62251841 0.75736255 0.84747851 0.75736255 0.84747851C0.746470691551 0.890941770877 0.759166256147 0.93693345999 0.79081205 0.96865461C0.814749375884 0.992592104335 0.847215425711 1.00604011262 0.881068035736 1.00604022514C0.914920645761 1.00604033766 0.947386784986 0.992592545205 0.97132427 0.96865521C0.995262076285 0.944717752517 1.00871022515 0.912251383662 1.00871022515 0.87839846C1.00871022515 0.844545536338 0.995262076285 0.812079167483 0.97132427 0.78814171C0.939603318298 0.756515433107 0.893625613473 0.743831265615 0.85017585 0.75471971C0.85017585 0.75471971 0.62515372 0.52970431 0.62515372 0.52970431C0.645698739576 0.473159795229 0.631686459618 0.409834794906 0.58920362 0.36723681C0.58920362 0.36723681 0.58920185 0.36723601 0.58920185 0.36723601M0.94000934 0.81945001C0.94000934 0.81945001 0.96159934 0.89998901 0.96159934 0.89998901C0.96159934 0.89998901 0.90263694 0.95895101 0.90263694 0.95895101C0.90263694 0.95895101 0.82209354 0.93736001 0.82209354 0.93736001C0.82209354 0.93736001 0.80052174 0.85683601 0.80052174 0.85683601C0.80052174 0.85683601 0.85948414 0.79787401 0.85948414 0.79787401C0.85948414 0.79787401 0.94000934 0.81945001 0.94000934 0.81945001"
	/>
	<path
		style="fill:#ffffff"
		d="M0.63307397 0.67259441C0.63307397 0.67259441 0.83804817 0.46762031 0.83804817 0.46762031C0.83804817 0.46762031 0.83804817 0.41194851 0.83804817 0.41194851C0.83804817 0.41194851 0.97300765 0.34109151 0.97300765 0.34109151C0.97300765 0.34109151 1.00083985 0.36892751 1.00083985 0.36892751C1.00083985 0.36892751 0.93420365 0.50304831 0.93420365 0.50304831C0.93420365 0.50304831 0.87347455 0.50810831 0.87347455 0.50810831C0.87347455 0.50810831 0.66259504 0.71898731 0.66259504 0.71898731C0.66259504 0.71898731 0.63307397 0.67259441 0.63307397 0.67259441"
	/>
	<path
		style="fill:#df2c2c"
		d="M0.6489969 0.64169001C0.6403899 0.63310001 0.6265734 0.63311001 0.6179755 0.64170421C0.6179755 0.64170421 0.5765713 0.68310621 0.5765713 0.68310621C0.5765713 0.68310621 0.5716793 0.67822621 0.5716793 0.67822621C0.5557065 0.66225421 0.5342615 0.68460621 0.5256727 0.69319921C0.5256727 0.69319921 0.34196096 0.87690751 0.34196096 0.87690751C0.30489656 0.94257851 0.40208306 1.0443148 0.46602942 1.0009756C0.46602942 1.0009756 0.64973982 0.81726491 0.64973982 0.81726491C0.65834682 0.80867491 0.68015422 0.78670491 0.66472502 0.77127491C0.66472502 0.77127491 0.65983302 0.76639491 0.65983302 0.76639491C0.65983302 0.76639491 0.70123722 0.72499291 0.70123722 0.72499291C0.70984422 0.71640291 0.70984422 0.70256791 0.70125171 0.69397591C0.70125171 0.69397591 0.6489969 0.64169001 0.6489969 0.64169001"
	/>
</svg>
