<?xml version="1.0" encoding="UTF-8" standalone="no"?>
<svg
	xmlns="http://www.w3.org/2000/svg"
	viewBox="0 0 1.3333333 1.3333332"
	height="120"
	width="120"
>
	<rect
		style="fill:#69be7a"
		width="1.3333333"
		height="1.3333333"
		x="-4.4408921e-16"
		y="2.220446e-16"
	/>
	<path
		style="fill:#733232"
		d="M0.28006506 0.28029911C0.28006506 0.28029911 0.46637706 0.28029911 0.46637706 0.28029911C0.46637706 0.28029911 0.79286606 0.75051511 0.79286606 0.75051511C0.79286606 0.75051511 0.60655406 0.75051511 0.60655406 0.75051511C0.60655406 0.75051511 0.28006506 0.28029911 0.28006506 0.28029911"
	/>
	<path
		style="fill:#dc322f"
		d="M0.30211606 0.28029911C0.30211606 0.28029911 0.44376306 0.28029911 0.44376306 0.28029911C0.44376306 0.28029911 0.69198106 0.63778811 0.69198106 0.63778811C0.69198106 0.63778811 0.55033506 0.63778811 0.55033506 0.63778811C0.55033506 0.63778811 0.30211606 0.28029911 0.30211606 0.28029911"
	/>
	<path
		style="fill:#733232"
		d="M1.0346061 0.28029911C1.0346061 0.28029911 0.84829406 0.28029911 0.84829406 0.28029911C0.84829406 0.28029911 0.52180506 0.75051511 0.52180506 0.75051511C0.52180506 0.75051511 0.70811706 0.75051511 0.70811706 0.75051511C0.70811706 0.75051511 1.0346061 0.28029911 1.0346061 0.28029911"
	/>
	<path
		style="fill:#dc322f"
		d="M1.0125551 0.28029911C1.0125551 0.28029911 0.87090806 0.28029911 0.87090806 0.28029911C0.87090806 0.28029911 0.62269006 0.63778811 0.62269006 0.63778811C0.62269006 0.63778811 0.76433606 0.63778811 0.76433606 0.63778811C0.76433606 0.63778811 1.0125551 0.28029911 1.0125551 0.28029911"
	/>
	<path
		style="fill:#ffffff"
		d="M0.91171406 0.79108711C0.91171416 0.85764011 0.88527606 0.92146711 0.83821606 0.96852711C0.79115606 1.01558711 0.72732896 1.04202511 0.66077606 1.04202511C0.59422306 1.04202521 0.53039606 1.01558711 0.48333606 0.96852711C0.43627606 0.92146711 0.40983806 0.85764001 0.40983806 0.79108711C0.40983796 0.72453411 0.43627606 0.66070711 0.48333606 0.61364711C0.53039606 0.56658711 0.59422316 0.54014911 0.66077606 0.54014911C0.72732906 0.54014901 0.79115606 0.56658711 0.83821606 0.61364711C0.88527606 0.66070711 0.91171406 0.72453421 0.91171406 0.79108711C0.91171406 0.79108711 0.91171406 0.79108711 0.91171406 0.79108711"
	/>
	<path
		style="fill:#facb1b"
		d="M0.84458906 0.79003711C0.84458966 0.83878811 0.82522406 0.88554211 0.79075206 0.92001381C0.75628006 0.95448581 0.70952606 0.97385181 0.66077536 0.97385081C0.61202536 0.97385061 0.56527236 0.95448481 0.53080056 0.92001281C0.49632956 0.88554081 0.47696356 0.83878781 0.47696456 0.79003711C0.47696506 0.68852131 0.55925956 0.60622661 0.66077556 0.60622611C0.70952556 0.60622551 0.75627956 0.62559111 0.79075126 0.66006211C0.82522326 0.69453311 0.84458926 0.74128711 0.84458926 0.79003691C0.84458926 0.79003691 0.84458926 0.79003691 0.84458926 0.79003691"
	/>
	<path
		style="fill:#ffffff"
		d="M0.36302306 0.86939411C0.36302616 0.86982741 0.36302616 0.87026081 0.36302306 0.87069411C0.36301996 0.87026081 0.36301996 0.86982741 0.36302306 0.86939411C0.36302306 0.86939411 0.36302306 0.86939411 0.36302306 0.86939411M0.36302306 0.87069411C0.36302546 0.89470211 0.35349306 0.91772811 0.33651306 0.93470411C0.31953706 0.95168011 0.29651106 0.96121611 0.27250306 0.96121411C0.29651106 0.96121171 0.31953706 0.97074411 0.33651306 0.98772411C0.35348906 1.00470011 0.36302506 1.02772611 0.36302306 1.05173411C0.36302066 1.02772611 0.37255306 1.00470011 0.38953306 0.98772411C0.40650906 0.97074811 0.42953506 0.96121211 0.45354306 0.96121411C0.42953506 0.96121651 0.40650906 0.95168411 0.38953306 0.93470411C0.37255706 0.91772811 0.36302106 0.89470211 0.36302306 0.87069411C0.36302306 0.87069411 0.36302306 0.87069411 0.36302306 0.87069411M0.45354306 0.96121411C0.45397636 0.96121101 0.45440976 0.96121101 0.45484306 0.96121411C0.45484306 0.96121411 0.45484306 0.96105011 0.45484306 0.96105011C0.45440976 0.96105321 0.45397636 0.96105321 0.45354306 0.96105011C0.45354306 0.96105011 0.45354306 0.96121411 0.45354306 0.96121411M0.36302306 1.05173411C0.36302616 1.05216741 0.36302616 1.05260081 0.36302306 1.05303411C0.36302306 1.05303411 0.36318706 1.05303411 0.36318706 1.05303411C0.36318396 1.05260081 0.36318396 1.05216741 0.36318706 1.05173411C0.36318706 1.05173411 0.36302306 1.05173411 0.36302306 1.05173411M0.27250306 0.96121411C0.27206976 0.96121721 0.27163636 0.96121721 0.27120306 0.96121411C0.27120306 0.96121411 0.27120306 0.96137811 0.27120306 0.96137811C0.27163636 0.96137501 0.27206976 0.96137501 0.27250306 0.96137811C0.27250306 0.96137811 0.27250306 0.96121411 0.27250306 0.96121411"
	/>
	<path
		style="fill:#ffffff"
		d="M0.97031006 0.49899811C0.97031316 0.49943141 0.97031316 0.49986481 0.97031006 0.50029811C0.97030696 0.49986481 0.97030696 0.49943141 0.97031006 0.49899811C0.97031006 0.49899811 0.97031006 0.49899811 0.97031006 0.49899811M0.97031006 0.50029811C0.97031246 0.52430611 0.96078006 0.54733211 0.94380006 0.56430811C0.92682406 0.58128411 0.90379806 0.59082011 0.87979006 0.59081811C0.90379806 0.59081571 0.92682406 0.60034811 0.94380006 0.61732811C0.96077606 0.63430411 0.97031206 0.65733011 0.97031006 0.68133811C0.97030766 0.65733011 0.97984006 0.63430411 0.99682006 0.61732811C1.01379606 0.60035211 1.03682206 0.59081611 1.06083006 0.59081811C1.03682206 0.59082051 1.01379606 0.58128811 0.99682006 0.56430811C0.97984406 0.54733211 0.97030806 0.52430611 0.97031006 0.50029811C0.97031006 0.50029811 0.97031006 0.50029811 0.97031006 0.50029811M1.06083006 0.59081811C1.06126336 0.59081501 1.06169676 0.59081501 1.06213006 0.59081811C1.06213006 0.59081811 1.06213006 0.59065411 1.06213006 0.59065411C1.06169676 0.59065721 1.06126336 0.59065721 1.06083006 0.59065411C1.06083006 0.59065411 1.06083006 0.59081811 1.06083006 0.59081811M0.97031006 0.68133811C0.97031316 0.68177141 0.97031316 0.68220481 0.97031006 0.68263811C0.97031006 0.68263811 0.97047406 0.68263811 0.97047406 0.68263811C0.97047096 0.68220481 0.97047096 0.68177141 0.97047406 0.68133811C0.97047406 0.68133811 0.97031006 0.68133811 0.97031006 0.68133811M0.87979006 0.59081811C0.87935676 0.59082121 0.87892336 0.59082121 0.87849006 0.59081811C0.87849006 0.59081811 0.87849006 0.59098211 0.87849006 0.59098211C0.87892336 0.59097901 0.87935676 0.59097901 0.87979006 0.59098211C0.87979006 0.59098211 0.87979006 0.59081811 0.87979006 0.59081811"
	/>
	<path
		style="fill:#f99134"
		d="M0.69025606 0.92566911C0.69025606 0.92566911 0.63899606 0.92566911 0.63899606 0.92566911C0.63899606 0.92566911 0.63899606 0.70554311 0.63899606 0.70554311C0.63899606 0.70554311 0.60620606 0.69348311 0.60620606 0.69348311C0.60620606 0.69348311 0.60620606 0.65692311 0.60620606 0.65692311C0.60620606 0.65692311 0.65068606 0.65692311 0.65068606 0.65692311C0.66727306 0.65692311 0.67795306 0.65992311 0.68272606 0.66592311C0.68772606 0.67192311 0.69022606 0.68386011 0.69022606 0.70173311C0.69022606 0.70173311 0.69025606 0.92566911 0.69025606 0.92566911"
	/>
	<path
		style="fill:#f99134;opacity:0.4"
		d="M0.85017706 0.62700031C0.77173706 0.69991931 0.55913306 0.91642911 0.49650906 0.98034251C0.54206306 1.02000051 0.60039136 1.04189851 0.66078906 1.04201651C0.79937456 1.04201441 0.91172006 0.92966982 0.91172306 0.79108432C0.91159246 0.73077032 0.88974206 0.67252032 0.85017306 0.62699992C0.85017306 0.62699992 0.85017706 0.62700032 0.85017706 0.62700032"
	/>
</svg>
