<?xml version="1.0" encoding="UTF-8" standalone="no"?>
<svg
	xmlns="http://www.w3.org/2000/svg"
	viewBox="0 0 128 128"
>
	<path
		d="M74.154697 39.060451C74.154697 39.060451 74.154697 3.8521662 74.154697 3.8521662C74.154697 3.8521662 109.36312 39.060451 109.36312 39.060451C109.36312 39.060451 74.154697 39.060451 74.154697 39.060451"
		style="fill:#b6ccf9"
	/>
	<path
		d="M 19.742188 3.8515625 L 19.742188 125.48047 L 109.36328 125.48047 L 109.36328 38.783203 L 74.431641 38.783203 L 74.431641 3.8515625 L 19.742188 3.8515625 z M 69.146484 52.306641 L 69.203125 52.306641 C 70.096646 52.306641 70.819773 52.657918 71.371094 53.361328 C 71.903406 54.121772 72.027353 54.937989 71.742188 55.8125 L 60.25 91.144531 C 59.86978 92.399264 59.014371 93.027344 57.683594 93.027344 L 57.597656 93.027344 C 56.685124 93.027344 55.972284 92.676067 55.458984 91.972656 C 54.945684 91.288256 54.821736 90.488704 55.087891 89.576172 L 66.580078 54.1875 C 66.998321 52.932768 67.853729 52.306641 69.146484 52.306641 z M 50.871094 59.320312 C 51.783626 59.358336 52.543988 59.690993 53.152344 60.318359 C 53.77971 60.926714 54.09375 61.687077 54.09375 62.599609 C 54.09375 64.044453 53.418147 65.052714 52.068359 65.623047 L 34.644531 72.695312 L 52.068359 79.767578 C 53.418147 80.318899 54.09375 81.327161 54.09375 82.791016 C 54.09375 83.760582 53.77971 84.558182 53.152344 85.185547 C 52.543988 85.812913 51.783626 86.126953 50.871094 86.126953 C 50.45285 86.126953 50.025146 86.021621 49.587891 85.8125 L 28.029297 76.544922 C 26.35632 75.8225 25.519531 74.558007 25.519531 72.751953 C 25.519531 70.907877 26.35632 69.624766 28.029297 68.902344 L 49.587891 59.578125 C 50.025146 59.369005 50.45285 59.282294 50.871094 59.320312 z M 77.134766 59.320312 C 77.572021 59.282291 77.999725 59.369003 78.417969 59.578125 L 99.976562 68.902344 C 101.63052 69.624766 102.45703 70.907877 102.45703 72.751953 C 102.45703 74.558007 101.63052 75.8225 99.976562 76.544922 L 78.417969 85.8125 C 77.999725 86.021621 77.572021 86.126953 77.134766 86.126953 C 76.260255 86.126953 75.510178 85.812913 74.882812 85.185547 C 74.255451 84.482137 73.922792 83.684538 73.884766 82.791016 C 73.884766 81.327161 74.568701 80.318899 75.9375 79.767578 L 93.304688 72.695312 L 75.9375 65.623047 C 74.568701 65.052714 73.884766 64.044453 73.884766 62.599609 C 73.922788 61.687077 74.255447 60.926714 74.882812 60.318359 C 75.510178 59.690997 76.260255 59.358339 77.134766 59.320312 z "
		style="fill:#487fef"
	/>
</svg>
