<?xml version="1.0" encoding="UTF-8" standalone="no"?>
<svg
	xmlns="http://www.w3.org/2000/svg"
	viewBox="0 0 128 128"
>
	<path
		d="M25.75293 19.802965C25.75293 19.802965 90.384751 19.802965 90.384751 19.802965C90.384751 19.802965 107.20221 35.960923 107.20221 35.960923C107.20221 35.960923 107.20221 52.11887 107.20221 52.11887C107.20221 52.11887 25.75293 52.11887 25.75293 52.11887C25.75293 52.11887 25.75293 19.802965 25.75293 19.802965"
		style="fill:#2b471f"
	/>
	<path
		d="M26.635137 51.546333C26.635137 51.546333 106.75605 51.546333 106.75605 51.546333C106.75605 51.546333 106.75605 111.80968 106.75605 111.80968C106.75605 111.80968 26.635137 111.80968 26.635137 111.80968C26.635137 111.80968 26.635137 51.546333 26.635137 51.546333"
		style="fill:#508139"
	/>
	<path
		d="M80.711388 5.0C80.711388 5.0 80.711388 5.018921 80.711388 5.018921C80.711388 5.018921 15.279142 5.018921 15.279142 5.018921C15.279142 5.018921 15.279142 123.3911 15.279142 123.3911C15.279142 123.3911 115.01586 123.3911 115.01586 123.3911C115.01586 123.3911 115.01586 39.161507 115.01586 39.161507C115.01586 39.161507 114.8729 39.161507 114.8729 39.161507C114.8729 39.161507 80.805995 5.0946065 80.805995 5.0946065C80.805995 5.0946065 80.805995 5.0189215 80.805995 5.0189215C80.805995 5.0189215 80.730315 5.0189215 80.730315 5.0189215C80.730315 5.0189215 80.711395 5.0000005 80.711395 5.0000005C80.711395 5.0000005 80.711395 5.0000005 80.711395 5.0000005M30.382611 24.798075C30.382611 24.798075 80.711388 24.798075 80.711388 24.798075C80.711388 24.798075 80.711388 39.277137 80.711388 39.277137C80.711388 39.277137 99.609647 39.277137 99.609647 39.277137C99.609647 39.277137 99.609647 49.992948 99.609647 49.992948C99.609647 49.992948 30.382611 49.992948 30.382611 49.992948C30.382611 49.992948 30.382611 24.798075 30.382611 24.798075C30.382611 24.798075 30.382611 24.798075 30.382611 24.798075M70.647315 56.04779C70.647315 56.04779 99.239623 56.04779 99.239623 56.04779C99.239623 56.04779 99.239623 62.338099 99.239623 62.338099C99.239623 62.338099 70.647315 62.338099 70.647315 62.338099C70.647315 62.338099 70.647315 56.04779 70.647315 56.04779C70.647315 56.04779 70.647315 56.04779 70.647315 56.04779M70.647315 67.316525C70.647315 67.316525 99.374181 67.316525 99.374181 67.316525C99.374181 67.316525 99.374181 73.573196 99.374181 73.573196C99.374181 73.573196 70.647315 73.573196 70.647315 73.573196C70.647315 73.573196 70.647315 67.316525 70.647315 67.316525C70.647315 67.316525 70.647315 67.316525 70.647315 67.316525M70.647315 78.551622C70.647315 78.551622 99.374181 78.551622 99.374181 78.551622C99.374181 78.551622 99.374181 84.875569 99.374181 84.875569C99.374181 84.875569 70.647315 84.875569 70.647315 84.875569C70.647315 84.875569 70.647315 78.551622 70.647315 78.551622C70.647315 78.551622 70.647315 78.551622 70.647315 78.551622M30.853544 89.853996C30.853544 89.853996 99.374181 89.853996 99.374181 89.853996C99.374181 89.853996 99.374181 96.144304 99.374181 96.144304C99.374181 96.144304 30.853544 96.144304 30.853544 96.144304C30.853544 96.144304 30.853544 89.853996 30.853544 89.853996C30.853544 89.853996 30.853544 89.853996 30.853544 89.853996M30.853544 101.08909C30.853544 101.08909 58.167611 101.08909 58.167611 101.08909C58.167611 101.08909 58.167611 107.44668 58.167611 107.44668C58.167611 107.44668 30.853544 107.44668 30.853544 107.44668C30.853544 107.44668 30.853544 101.08909 30.853544 101.08909C30.853544 101.08909 30.853544 101.08909 30.853544 101.08909"
		style="fill:#8ac072"
	/>
	<path
		d="M30.853544 55.804771C30.853544 55.804771 65.872981 55.804771 65.872981 55.804771C65.872981 55.804771 65.872981 84.741017 65.872981 84.741017C65.872981 84.741017 30.853544 84.741017 30.853544 84.741017C30.853544 84.741017 30.853544 55.804771 30.853544 55.804771"
		style="fill:#f2f8ef"
	/>
</svg>
